<mxfile host="Electron" agent="Mozilla/5.0 (Windows NT 10.0; Win64; x64) AppleWebKit/537.36 (KHTML, like Gecko) draw.io/24.7.5 Chrome/126.0.6478.183 Electron/31.3.0 Safari/537.36" version="24.7.5">
  <diagram name="Page-1" id="l6GA9dvKUWkwM0bpA_0F">
    <mxGraphModel dx="2787" dy="2693" grid="1" gridSize="10" guides="1" tooltips="1" connect="1" arrows="0" fold="1" page="1" pageScale="1" pageWidth="1100" pageHeight="850" math="0" shadow="0">
      <root>
        <mxCell id="0" />
        <mxCell id="1" parent="0" />
        <mxCell id="5Z4uFH55Tt--5G7TJ9ps-118" style="edgeStyle=none;shape=link;rounded=0;orthogonalLoop=1;jettySize=auto;html=1;exitX=0.75;exitY=0.5;exitDx=0;exitDy=0;exitPerimeter=0;entryX=0.65;entryY=0.54;entryDx=0;entryDy=0;entryPerimeter=0;strokeWidth=2;strokeColor=default;align=center;verticalAlign=middle;fontFamily=Helvetica;fontSize=11;fontColor=default;labelBackgroundColor=default;endArrow=classic;" parent="1" source="b2uNQ1o5INlZ-AaKB8p7-6" target="5Z4uFH55Tt--5G7TJ9ps-78" edge="1">
          <mxGeometry relative="1" as="geometry" />
        </mxCell>
        <mxCell id="5Z4uFH55Tt--5G7TJ9ps-88" style="edgeStyle=none;shape=link;rounded=0;orthogonalLoop=1;jettySize=auto;html=1;exitX=0.26;exitY=0.54;exitDx=0;exitDy=0;exitPerimeter=0;entryX=0.5;entryY=0.5;entryDx=0;entryDy=0;entryPerimeter=0;strokeWidth=2;" parent="1" source="5Z4uFH55Tt--5G7TJ9ps-78" target="5Z4uFH55Tt--5G7TJ9ps-61" edge="1">
          <mxGeometry relative="1" as="geometry" />
        </mxCell>
        <mxCell id="5Z4uFH55Tt--5G7TJ9ps-85" style="edgeStyle=none;shape=link;rounded=0;orthogonalLoop=1;jettySize=auto;html=1;exitX=0.5;exitY=0.5;exitDx=0;exitDy=0;exitPerimeter=0;entryX=0.65;entryY=0.54;entryDx=0;entryDy=0;entryPerimeter=0;strokeWidth=2;" parent="1" source="b2uNQ1o5INlZ-AaKB8p7-6" target="b2uNQ1o5INlZ-AaKB8p7-1" edge="1">
          <mxGeometry relative="1" as="geometry" />
        </mxCell>
        <mxCell id="5Z4uFH55Tt--5G7TJ9ps-83" style="edgeStyle=none;shape=link;rounded=0;orthogonalLoop=1;jettySize=auto;html=1;exitX=0.26;exitY=0.54;exitDx=0;exitDy=0;exitPerimeter=0;entryX=0;entryY=1;entryDx=0;entryDy=0;strokeWidth=2;" parent="1" source="5Z4uFH55Tt--5G7TJ9ps-78" target="5Z4uFH55Tt--5G7TJ9ps-59" edge="1">
          <mxGeometry relative="1" as="geometry" />
        </mxCell>
        <mxCell id="5Z4uFH55Tt--5G7TJ9ps-84" style="edgeStyle=none;shape=link;rounded=0;orthogonalLoop=1;jettySize=auto;html=1;exitX=0.65;exitY=0.54;exitDx=0;exitDy=0;exitPerimeter=0;entryX=0.25;entryY=1;entryDx=0;entryDy=0;strokeWidth=2;" parent="1" source="5Z4uFH55Tt--5G7TJ9ps-78" target="5Z4uFH55Tt--5G7TJ9ps-59" edge="1">
          <mxGeometry relative="1" as="geometry" />
        </mxCell>
        <mxCell id="5Z4uFH55Tt--5G7TJ9ps-81" style="edgeStyle=none;shape=link;rounded=0;orthogonalLoop=1;jettySize=auto;html=1;exitX=0.26;exitY=0.54;exitDx=0;exitDy=0;exitPerimeter=0;entryX=0.75;entryY=1;entryDx=0;entryDy=0;strokeWidth=2;" parent="1" source="b2uNQ1o5INlZ-AaKB8p7-1" target="5Z4uFH55Tt--5G7TJ9ps-58" edge="1">
          <mxGeometry relative="1" as="geometry" />
        </mxCell>
        <mxCell id="5Z4uFH55Tt--5G7TJ9ps-82" style="edgeStyle=none;shape=link;rounded=0;orthogonalLoop=1;jettySize=auto;html=1;exitX=0.65;exitY=0.54;exitDx=0;exitDy=0;exitPerimeter=0;entryX=1;entryY=1;entryDx=0;entryDy=0;strokeWidth=2;" parent="1" source="b2uNQ1o5INlZ-AaKB8p7-1" target="5Z4uFH55Tt--5G7TJ9ps-58" edge="1">
          <mxGeometry relative="1" as="geometry" />
        </mxCell>
        <mxCell id="b2uNQ1o5INlZ-AaKB8p7-3" value="" style="html=1;verticalLabelPosition=bottom;align=center;labelBackgroundColor=#ffffff;verticalAlign=top;strokeWidth=4;strokeColor=#6c8ebf;shadow=0;dashed=0;shape=mxgraph.ios7.icons.cloud;fillColor=#dae8fc;rounded=0;" parent="1" vertex="1">
          <mxGeometry x="-242" y="-1050" width="490" height="230" as="geometry" />
        </mxCell>
        <mxCell id="b2uNQ1o5INlZ-AaKB8p7-14" value="" style="html=1;verticalLabelPosition=bottom;align=center;labelBackgroundColor=#ffffff;verticalAlign=top;strokeWidth=4;strokeColor=#6c8ebf;shadow=0;dashed=0;shape=mxgraph.ios7.icons.cloud;fillColor=#dae8fc;flipV=0;flipH=1;rounded=0;" parent="1" vertex="1">
          <mxGeometry x="602" y="-1060" width="490" height="230" as="geometry" />
        </mxCell>
        <mxCell id="T7RogalMEqnBFZZgvRJF-54" value="" style="shape=image;verticalLabelPosition=bottom;verticalAlign=top;imageAspect=0;aspect=fixed;image=data:image/svg+xml,PHN2ZyB4bWxucz0iaHR0cDovL3d3dy53My5vcmcvMjAwMC9zdmciIHZpZXdCb3g9IjAgMCA1ODAuNzUgMTU5Ljk3IiBpZD0ibG9nbyI+PGRlZnM+PHN0eWxlPi5jbHMtMXtmaWxsOiNkYTI5MWM7fS5jbHMtMntmaWxsOm5vbmU7fTwvc3R5bGU+PC9kZWZzPjxyZWN0IGhlaWdodD0iMTU5Ljk3IiB3aWR0aD0iNTgwLjc1IiBjbGFzcz0iY2xzLTIiLz48cGF0aCBkPSJtMzI1LjYxLDY0Ljczdi0xMS40MWgxMy4wMnY1My4zMmgtMTMuMDJ2LTQxLjkxWm0tNTcuNDQtMTEuNDFoNTAuMjl2MTEuNDVoLTIzLjU3djQxLjg3aC0xMy4wMnYtNDEuODdoLTEzLjcxdi0xMS40NVptMjU5LjM4LDB2MTEuNDVoLTIzLjU3djQxLjg3aC0xMy4wMnYtNDEuODdoLTEzLjcxdi0xMS40NWg1MC4yOVptLTQ3NC4yMywwaDU2LjM5djExLjQ1aC00My4zN3YxMS40aDM2Ljk5djExLjQ1aC0zNi45OXYxOS4wMWgtMTMuMDJ2LTUzLjMyWm0zNjQuMywwaDUyLjQ5djExLjQ1aC0zOS40N3Y5LjQ4aDMyLjM5djExLjQ1aC0zMi4zOXY5LjQ4aDQwLjE4djExLjQ1aC01My4ydi01My4zMlptLTEwLjA2LDE1LjA3djM4LjI1aC0xMy4wMnYtMzguMjVjMC0yLTEuNjItMy42MS0zLjYxLTMuNjFoLTI5LjIyczAsNDEuODYsMCw0MS44NmgtMTMuMDJ2LTUzLjMyaDQzLjhjOC4zMiwwLDE1LjA3LDYuNzUsMTUuMDcsMTUuMDdabS0xNTkuNDMtMTUuMDdoLTQ0LjUyczAsNTMuMzIsMCw1My4zMmgxMy4wMnYtMTkuMDNoMjkuM2MxLjU3LjA1LDIuODMsMS4zNCwyLjgzLDIuOTN2MTYuMTFoMTMuMDJ2LTE2LjI1YzAtMi44NS0xLjU2LTUuMzMtMy44OC02LjY0LDIuODItMi42Miw0LjU5LTYuMzYsNC41OS0xMC41MXYtNS41NmMwLTcuOTMtNi40My0xNC4zNS0xNC4zNS0xNC4zNVptMS4zNCwxOS44OWMwLDEuNjMtMS4zMiwyLjk1LTIuOTUsMi45NWgtMjkuODl2LTExLjM5bDI5Ljg5LS4wM2MxLjYzLDAsMi45NSwxLjMyLDIuOTUsMi45NXY1LjU0WiIvPjxwYXRoIGQ9Im0xOTMuNTYsNzMuMDd2MTMuODRoLTIxLjUzdi0xMy44NGgyMS41M1ptLTQ4Ljk2LDMzLjU4aDBzMjEuNTMsMCwyMS41MywwaDB2LTEzLjg0aC0yMS41M3YxMy44M1ptNDguOTUtNDEuNzNjMC02LjQtNS4xOS0xMS42LTExLjYtMTEuNmgtOS45M3YxMy44NGgyMS41MnYtMi4yNFptLTQ4Ljk1LTExLjU5djEzLjg0aDIxLjUzdi0xMy44NGgwcy0yMS41MywwLTIxLjUzLDBoMFptLTI3LjQzLDE5Ljc0aDB2MTMuODRoMjEuNTN2LTEzLjg0aC0yMS41M1ptNTQuODYsMzMuNThoOS45M2M2LjQsMCwxMS42LTUuMTksMTEuNi0xMS42di0yLjI0aC0yMS41MnYxMy44NFptLTU0Ljg2LTExLjZjMCw2LjQsNS4xOSwxMS42LDExLjYsMTEuNmg5LjkzczAtMTMuODMsMC0xMy44M2gtMjEuNTN2Mi4yNFptMC0zMC4xM3YyLjI0aDIxLjUzdi0xMy44NGgtOS45M2MtNi40LDAtMTEuNiw1LjE5LTExLjYsMTEuNloiIGNsYXNzPSJjbHMtMSIvPjwvc3ZnPg==;rounded=0;" parent="1" vertex="1">
          <mxGeometry x="330.5" y="894.78" width="412.37" height="113.56" as="geometry" />
        </mxCell>
        <mxCell id="T7RogalMEqnBFZZgvRJF-56" value="" style="shape=image;verticalLabelPosition=bottom;labelBackgroundColor=default;verticalAlign=top;aspect=fixed;imageAspect=0;image=http://ngn.coop/wp-content/uploads/2013/11/Juniper-logo.png;rounded=0;" parent="1" vertex="1">
          <mxGeometry x="730" y="904.12" width="310.68" height="103.56" as="geometry" />
        </mxCell>
        <mxCell id="T7RogalMEqnBFZZgvRJF-57" value="" style="shape=image;verticalLabelPosition=bottom;labelBackgroundColor=default;verticalAlign=top;aspect=fixed;imageAspect=0;image=https://translatorswithoutborders.org/wp-content/uploads/2021/12/Cisco-logo.png;rounded=0;" parent="1" vertex="1">
          <mxGeometry x="89.50000000000003" y="839.17" width="250.5" height="250.5" as="geometry" />
        </mxCell>
        <mxCell id="p2JEXS6Zfyh-3q4PAfEE-44" value="&lt;font style=&quot;font-size: 53px;&quot;&gt;COSTAATT SOUTH CAMPUS HIGH LEVEL NETWORK DESIGN&lt;/font&gt;&lt;div style=&quot;font-size: 38px;&quot;&gt;&lt;font style=&quot;font-size: 38px;&quot;&gt;&lt;i&gt;ver&lt;/i&gt;&lt;/font&gt;&lt;i style=&quot;background-color: initial;&quot;&gt;&amp;nbsp;1.2&lt;/i&gt;&lt;/div&gt;" style="text;strokeColor=none;fillColor=none;html=1;fontSize=24;fontStyle=1;verticalAlign=middle;align=center;" parent="1" vertex="1">
          <mxGeometry x="190.5" y="-1140" width="470" height="40" as="geometry" />
        </mxCell>
        <mxCell id="5Z4uFH55Tt--5G7TJ9ps-2" style="edgeStyle=none;shape=link;rounded=0;orthogonalLoop=1;jettySize=auto;html=1;exitX=0.5;exitY=0.5;exitDx=0;exitDy=0;exitPerimeter=0;entryX=0.5;entryY=0.5;entryDx=0;entryDy=0;entryPerimeter=0;strokeWidth=2;" parent="1" source="T7RogalMEqnBFZZgvRJF-6" target="T7RogalMEqnBFZZgvRJF-29" edge="1">
          <mxGeometry relative="1" as="geometry" />
        </mxCell>
        <mxCell id="5Z4uFH55Tt--5G7TJ9ps-22" style="edgeStyle=none;shape=link;rounded=0;orthogonalLoop=1;jettySize=auto;html=1;exitX=0.5;exitY=0.5;exitDx=0;exitDy=0;exitPerimeter=0;entryX=0.5;entryY=0.5;entryDx=0;entryDy=0;entryPerimeter=0;strokeWidth=2;" parent="1" source="5Z4uFH55Tt--5G7TJ9ps-16" target="T7RogalMEqnBFZZgvRJF-6" edge="1">
          <mxGeometry relative="1" as="geometry" />
        </mxCell>
        <mxCell id="5Z4uFH55Tt--5G7TJ9ps-23" style="edgeStyle=none;shape=link;rounded=0;orthogonalLoop=1;jettySize=auto;html=1;exitX=0.5;exitY=0.5;exitDx=0;exitDy=0;exitPerimeter=0;entryX=0.5;entryY=0.5;entryDx=0;entryDy=0;entryPerimeter=0;endSize=6;strokeWidth=2;" parent="1" source="5Z4uFH55Tt--5G7TJ9ps-20" target="T7RogalMEqnBFZZgvRJF-6" edge="1">
          <mxGeometry relative="1" as="geometry" />
        </mxCell>
        <mxCell id="5Z4uFH55Tt--5G7TJ9ps-24" style="edgeStyle=none;shape=link;rounded=0;orthogonalLoop=1;jettySize=auto;html=1;exitX=0.5;exitY=0.5;exitDx=0;exitDy=0;exitPerimeter=0;entryX=0.5;entryY=0.5;entryDx=0;entryDy=0;entryPerimeter=0;strokeWidth=2;" parent="1" source="5Z4uFH55Tt--5G7TJ9ps-21" target="T7RogalMEqnBFZZgvRJF-6" edge="1">
          <mxGeometry relative="1" as="geometry" />
        </mxCell>
        <mxCell id="5Z4uFH55Tt--5G7TJ9ps-25" style="edgeStyle=none;shape=link;rounded=0;orthogonalLoop=1;jettySize=auto;html=1;exitX=0.5;exitY=0.5;exitDx=0;exitDy=0;exitPerimeter=0;entryX=0.5;entryY=0.5;entryDx=0;entryDy=0;entryPerimeter=0;strokeWidth=2;" parent="1" source="T7RogalMEqnBFZZgvRJF-29" target="5Z4uFH55Tt--5G7TJ9ps-9" edge="1">
          <mxGeometry relative="1" as="geometry" />
        </mxCell>
        <mxCell id="5Z4uFH55Tt--5G7TJ9ps-26" style="edgeStyle=none;shape=link;rounded=0;orthogonalLoop=1;jettySize=auto;html=1;exitX=0.5;exitY=0.5;exitDx=0;exitDy=0;exitPerimeter=0;entryX=0.5;entryY=0.5;entryDx=0;entryDy=0;entryPerimeter=0;strokeWidth=2;" parent="1" source="T7RogalMEqnBFZZgvRJF-29" target="5Z4uFH55Tt--5G7TJ9ps-15" edge="1">
          <mxGeometry relative="1" as="geometry" />
        </mxCell>
        <mxCell id="5Z4uFH55Tt--5G7TJ9ps-27" style="edgeStyle=none;shape=link;rounded=0;orthogonalLoop=1;jettySize=auto;html=1;exitX=0.5;exitY=0.5;exitDx=0;exitDy=0;exitPerimeter=0;entryX=0.5;entryY=0.5;entryDx=0;entryDy=0;entryPerimeter=0;strokeWidth=2;" parent="1" source="5Z4uFH55Tt--5G7TJ9ps-16" target="5Z4uFH55Tt--5G7TJ9ps-9" edge="1">
          <mxGeometry relative="1" as="geometry" />
        </mxCell>
        <mxCell id="5Z4uFH55Tt--5G7TJ9ps-28" style="edgeStyle=none;shape=link;rounded=0;orthogonalLoop=1;jettySize=auto;html=1;exitX=0.5;exitY=0.5;exitDx=0;exitDy=0;exitPerimeter=0;entryX=0.5;entryY=0.5;entryDx=0;entryDy=0;entryPerimeter=0;strokeWidth=2;" parent="1" source="5Z4uFH55Tt--5G7TJ9ps-16" target="5Z4uFH55Tt--5G7TJ9ps-15" edge="1">
          <mxGeometry relative="1" as="geometry" />
        </mxCell>
        <mxCell id="5Z4uFH55Tt--5G7TJ9ps-29" style="edgeStyle=none;shape=link;rounded=0;orthogonalLoop=1;jettySize=auto;html=1;exitX=0.5;exitY=0.5;exitDx=0;exitDy=0;exitPerimeter=0;entryX=0.5;entryY=0.5;entryDx=0;entryDy=0;entryPerimeter=0;strokeWidth=2;" parent="1" source="5Z4uFH55Tt--5G7TJ9ps-20" target="5Z4uFH55Tt--5G7TJ9ps-9" edge="1">
          <mxGeometry relative="1" as="geometry" />
        </mxCell>
        <mxCell id="5Z4uFH55Tt--5G7TJ9ps-16" value="" style="sketch=0;points=[[0,0.25,0,0,0],[0,0.5,0,0,0],[0,0.75,0,0,0],[0.015,0.015,0,0,0],[0.015,0.985,0,0,0],[0.25,0,0,0,0],[0.25,1,0,0,0],[0.5,0,0,0,0],[0.5,0.5,0,0,0],[0.5,1,0,0,0],[0.75,0,0,0,0],[0.75,1,0,0,0],[0.985,0.015,0,0,0],[0.985,0.985,0,0,0],[1,0.25,0,0,0],[1,0.5,0,0,0],[1,0.75,0,0,0]];verticalLabelPosition=bottom;html=1;verticalAlign=top;aspect=fixed;align=center;pointerEvents=1;shape=mxgraph.cisco19.rect;prIcon=workgroup_switch;fillColor=#FAFAFA;strokeColor=#6696AB;rounded=0;" parent="1" vertex="1">
          <mxGeometry x="-480" y="550" width="130" height="130" as="geometry" />
        </mxCell>
        <mxCell id="T7RogalMEqnBFZZgvRJF-29" value="" style="sketch=0;points=[[0,0.25,0,0,0],[0,0.5,0,0,0],[0,0.75,0,0,0],[0.015,0.015,0,0,0],[0.015,0.985,0,0,0],[0.25,0,0,0,0],[0.25,1,0,0,0],[0.5,0,0,0,0],[0.5,0.5,0,0,0],[0.5,1,0,0,0],[0.75,0,0,0,0],[0.75,1,0,0,0],[0.985,0.015,0,0,0],[0.985,0.985,0,0,0],[1,0.25,0,0,0],[1,0.5,0,0,0],[1,0.75,0,0,0]];verticalLabelPosition=bottom;html=1;verticalAlign=top;aspect=fixed;align=center;pointerEvents=1;shape=mxgraph.cisco19.rect;prIcon=workgroup_switch;fillColor=#FAFAFA;strokeColor=#6696AB;rounded=0;" parent="1" vertex="1">
          <mxGeometry x="-520" y="320" width="130" height="130" as="geometry" />
        </mxCell>
        <mxCell id="5Z4uFH55Tt--5G7TJ9ps-31" style="edgeStyle=none;shape=link;rounded=0;orthogonalLoop=1;jettySize=auto;html=1;exitX=0.5;exitY=0.5;exitDx=0;exitDy=0;exitPerimeter=0;entryX=0.5;entryY=0.5;entryDx=0;entryDy=0;entryPerimeter=0;strokeWidth=2;" parent="1" source="5Z4uFH55Tt--5G7TJ9ps-15" target="5Z4uFH55Tt--5G7TJ9ps-20" edge="1">
          <mxGeometry relative="1" as="geometry" />
        </mxCell>
        <mxCell id="5Z4uFH55Tt--5G7TJ9ps-20" value="" style="sketch=0;points=[[0,0.25,0,0,0],[0,0.5,0,0,0],[0,0.75,0,0,0],[0.015,0.015,0,0,0],[0.015,0.985,0,0,0],[0.25,0,0,0,0],[0.25,1,0,0,0],[0.5,0,0,0,0],[0.5,0.5,0,0,0],[0.5,1,0,0,0],[0.75,0,0,0,0],[0.75,1,0,0,0],[0.985,0.015,0,0,0],[0.985,0.985,0,0,0],[1,0.25,0,0,0],[1,0.5,0,0,0],[1,0.75,0,0,0]];verticalLabelPosition=bottom;html=1;verticalAlign=top;aspect=fixed;align=center;pointerEvents=1;shape=mxgraph.cisco19.rect;prIcon=workgroup_switch;fillColor=#FAFAFA;strokeColor=#6696AB;rounded=0;" parent="1" vertex="1">
          <mxGeometry x="-220" y="620" width="130" height="130" as="geometry" />
        </mxCell>
        <mxCell id="5Z4uFH55Tt--5G7TJ9ps-32" style="edgeStyle=none;shape=link;rounded=0;orthogonalLoop=1;jettySize=auto;html=1;exitX=0.5;exitY=0.5;exitDx=0;exitDy=0;exitPerimeter=0;entryX=0.5;entryY=0.5;entryDx=0;entryDy=0;entryPerimeter=0;strokeWidth=2;" parent="1" source="5Z4uFH55Tt--5G7TJ9ps-21" target="5Z4uFH55Tt--5G7TJ9ps-9" edge="1">
          <mxGeometry relative="1" as="geometry" />
        </mxCell>
        <mxCell id="5Z4uFH55Tt--5G7TJ9ps-33" style="edgeStyle=none;shape=link;rounded=0;orthogonalLoop=1;jettySize=auto;html=1;exitX=0.5;exitY=0.5;exitDx=0;exitDy=0;exitPerimeter=0;entryX=0.5;entryY=0.5;entryDx=0;entryDy=0;entryPerimeter=0;strokeWidth=2;" parent="1" source="5Z4uFH55Tt--5G7TJ9ps-21" target="5Z4uFH55Tt--5G7TJ9ps-15" edge="1">
          <mxGeometry relative="1" as="geometry" />
        </mxCell>
        <mxCell id="5Z4uFH55Tt--5G7TJ9ps-21" value="" style="sketch=0;points=[[0,0.25,0,0,0],[0,0.5,0,0,0],[0,0.75,0,0,0],[0.015,0.015,0,0,0],[0.015,0.985,0,0,0],[0.25,0,0,0,0],[0.25,1,0,0,0],[0.5,0,0,0,0],[0.5,0.5,0,0,0],[0.5,1,0,0,0],[0.75,0,0,0,0],[0.75,1,0,0,0],[0.985,0.015,0,0,0],[0.985,0.985,0,0,0],[1,0.25,0,0,0],[1,0.5,0,0,0],[1,0.75,0,0,0]];verticalLabelPosition=bottom;html=1;verticalAlign=top;aspect=fixed;align=center;pointerEvents=1;shape=mxgraph.cisco19.rect;prIcon=workgroup_switch;fillColor=#FAFAFA;strokeColor=#6696AB;rounded=0;" parent="1" vertex="1">
          <mxGeometry x="100" y="620" width="130" height="130" as="geometry" />
        </mxCell>
        <mxCell id="5Z4uFH55Tt--5G7TJ9ps-34" style="edgeStyle=none;shape=link;rounded=0;orthogonalLoop=1;jettySize=auto;html=1;exitX=0.5;exitY=0.5;exitDx=0;exitDy=0;exitPerimeter=0;entryX=0.5;entryY=0.5;entryDx=0;entryDy=0;entryPerimeter=0;strokeWidth=2;" parent="1" source="5Z4uFH55Tt--5G7TJ9ps-18" target="5Z4uFH55Tt--5G7TJ9ps-9" edge="1">
          <mxGeometry relative="1" as="geometry" />
        </mxCell>
        <mxCell id="5Z4uFH55Tt--5G7TJ9ps-35" style="edgeStyle=none;shape=link;rounded=0;orthogonalLoop=1;jettySize=auto;html=1;exitX=0.5;exitY=0.5;exitDx=0;exitDy=0;exitPerimeter=0;entryX=0.5;entryY=0.5;entryDx=0;entryDy=0;entryPerimeter=0;strokeWidth=2;" parent="1" source="5Z4uFH55Tt--5G7TJ9ps-18" target="T7RogalMEqnBFZZgvRJF-6" edge="1">
          <mxGeometry relative="1" as="geometry" />
        </mxCell>
        <mxCell id="5Z4uFH55Tt--5G7TJ9ps-36" style="edgeStyle=none;shape=link;rounded=0;orthogonalLoop=1;jettySize=auto;html=1;exitX=0.5;exitY=0.5;exitDx=0;exitDy=0;exitPerimeter=0;entryX=0.5;entryY=0.5;entryDx=0;entryDy=0;entryPerimeter=0;strokeWidth=2;" parent="1" source="5Z4uFH55Tt--5G7TJ9ps-18" target="5Z4uFH55Tt--5G7TJ9ps-15" edge="1">
          <mxGeometry relative="1" as="geometry" />
        </mxCell>
        <mxCell id="5Z4uFH55Tt--5G7TJ9ps-39" style="edgeStyle=none;shape=link;rounded=0;orthogonalLoop=1;jettySize=auto;html=1;exitX=0.5;exitY=0.5;exitDx=0;exitDy=0;exitPerimeter=0;entryX=0.5;entryY=0.5;entryDx=0;entryDy=0;entryPerimeter=0;strokeWidth=2;" parent="1" source="5Z4uFH55Tt--5G7TJ9ps-17" target="T7RogalMEqnBFZZgvRJF-6" edge="1">
          <mxGeometry relative="1" as="geometry" />
        </mxCell>
        <mxCell id="5Z4uFH55Tt--5G7TJ9ps-40" style="edgeStyle=none;shape=link;rounded=0;orthogonalLoop=1;jettySize=auto;html=1;exitX=0.5;exitY=0.5;exitDx=0;exitDy=0;exitPerimeter=0;entryX=0.5;entryY=0.5;entryDx=0;entryDy=0;entryPerimeter=0;strokeWidth=2;" parent="1" source="5Z4uFH55Tt--5G7TJ9ps-17" target="5Z4uFH55Tt--5G7TJ9ps-9" edge="1">
          <mxGeometry relative="1" as="geometry" />
        </mxCell>
        <mxCell id="5Z4uFH55Tt--5G7TJ9ps-41" style="edgeStyle=none;shape=link;rounded=0;orthogonalLoop=1;jettySize=auto;html=1;exitX=0.5;exitY=0.5;exitDx=0;exitDy=0;exitPerimeter=0;entryX=0.5;entryY=0.5;entryDx=0;entryDy=0;entryPerimeter=0;strokeWidth=2;" parent="1" source="5Z4uFH55Tt--5G7TJ9ps-17" target="5Z4uFH55Tt--5G7TJ9ps-15" edge="1">
          <mxGeometry relative="1" as="geometry" />
        </mxCell>
        <mxCell id="5Z4uFH55Tt--5G7TJ9ps-42" style="edgeStyle=none;shape=link;rounded=0;orthogonalLoop=1;jettySize=auto;html=1;exitX=0.5;exitY=0.5;exitDx=0;exitDy=0;exitPerimeter=0;entryX=0.5;entryY=0.5;entryDx=0;entryDy=0;entryPerimeter=0;strokeWidth=2;" parent="1" source="5Z4uFH55Tt--5G7TJ9ps-38" target="T7RogalMEqnBFZZgvRJF-6" edge="1">
          <mxGeometry relative="1" as="geometry" />
        </mxCell>
        <mxCell id="5Z4uFH55Tt--5G7TJ9ps-43" style="edgeStyle=none;shape=link;rounded=0;orthogonalLoop=1;jettySize=auto;html=1;exitX=0.5;exitY=0.5;exitDx=0;exitDy=0;exitPerimeter=0;entryX=0.5;entryY=0.5;entryDx=0;entryDy=0;entryPerimeter=0;strokeWidth=2;" parent="1" source="5Z4uFH55Tt--5G7TJ9ps-38" target="5Z4uFH55Tt--5G7TJ9ps-9" edge="1">
          <mxGeometry relative="1" as="geometry" />
        </mxCell>
        <mxCell id="5Z4uFH55Tt--5G7TJ9ps-44" style="edgeStyle=none;shape=link;rounded=0;orthogonalLoop=1;jettySize=auto;html=1;exitX=0.5;exitY=0.5;exitDx=0;exitDy=0;exitPerimeter=0;entryX=0.5;entryY=0.5;entryDx=0;entryDy=0;entryPerimeter=0;endSize=6;strokeWidth=2;" parent="1" source="5Z4uFH55Tt--5G7TJ9ps-38" target="5Z4uFH55Tt--5G7TJ9ps-15" edge="1">
          <mxGeometry relative="1" as="geometry" />
        </mxCell>
        <mxCell id="5Z4uFH55Tt--5G7TJ9ps-45" style="edgeStyle=none;shape=link;rounded=0;orthogonalLoop=1;jettySize=auto;html=1;exitX=0.5;exitY=0.5;exitDx=0;exitDy=0;exitPerimeter=0;entryX=0.5;entryY=0.5;entryDx=0;entryDy=0;entryPerimeter=0;strokeWidth=2;" parent="1" source="5Z4uFH55Tt--5G7TJ9ps-37" target="T7RogalMEqnBFZZgvRJF-6" edge="1">
          <mxGeometry relative="1" as="geometry" />
        </mxCell>
        <mxCell id="5Z4uFH55Tt--5G7TJ9ps-46" style="edgeStyle=none;shape=link;rounded=0;orthogonalLoop=1;jettySize=auto;html=1;exitX=0.5;exitY=0.5;exitDx=0;exitDy=0;exitPerimeter=0;entryX=0.5;entryY=0.5;entryDx=0;entryDy=0;entryPerimeter=0;strokeWidth=2;" parent="1" source="5Z4uFH55Tt--5G7TJ9ps-37" target="5Z4uFH55Tt--5G7TJ9ps-9" edge="1">
          <mxGeometry relative="1" as="geometry" />
        </mxCell>
        <mxCell id="5Z4uFH55Tt--5G7TJ9ps-47" style="edgeStyle=none;shape=link;rounded=0;orthogonalLoop=1;jettySize=auto;html=1;exitX=0.5;exitY=0.5;exitDx=0;exitDy=0;exitPerimeter=0;entryX=0.5;entryY=0.5;entryDx=0;entryDy=0;entryPerimeter=0;strokeWidth=2;" parent="1" source="5Z4uFH55Tt--5G7TJ9ps-37" target="5Z4uFH55Tt--5G7TJ9ps-15" edge="1">
          <mxGeometry relative="1" as="geometry" />
        </mxCell>
        <mxCell id="5Z4uFH55Tt--5G7TJ9ps-18" value="" style="sketch=0;points=[[0,0.25,0,0,0],[0,0.5,0,0,0],[0,0.75,0,0,0],[0.015,0.015,0,0,0],[0.015,0.985,0,0,0],[0.25,0,0,0,0],[0.25,1,0,0,0],[0.5,0,0,0,0],[0.5,0.5,0,0,0],[0.5,1,0,0,0],[0.75,0,0,0,0],[0.75,1,0,0,0],[0.985,0.015,0,0,0],[0.985,0.985,0,0,0],[1,0.25,0,0,0],[1,0.5,0,0,0],[1,0.75,0,0,0]];verticalLabelPosition=bottom;html=1;verticalAlign=top;aspect=fixed;align=center;pointerEvents=1;shape=mxgraph.cisco19.rect;prIcon=workgroup_switch;fillColor=#FAFAFA;strokeColor=#6696AB;rounded=0;" parent="1" vertex="1">
          <mxGeometry x="611.5" y="620" width="130" height="130" as="geometry" />
        </mxCell>
        <mxCell id="5Z4uFH55Tt--5G7TJ9ps-17" value="" style="sketch=0;points=[[0,0.25,0,0,0],[0,0.5,0,0,0],[0,0.75,0,0,0],[0.015,0.015,0,0,0],[0.015,0.985,0,0,0],[0.25,0,0,0,0],[0.25,1,0,0,0],[0.5,0,0,0,0],[0.5,0.5,0,0,0],[0.5,1,0,0,0],[0.75,0,0,0,0],[0.75,1,0,0,0],[0.985,0.015,0,0,0],[0.985,0.985,0,0,0],[1,0.25,0,0,0],[1,0.5,0,0,0],[1,0.75,0,0,0]];verticalLabelPosition=bottom;html=1;verticalAlign=top;aspect=fixed;align=center;pointerEvents=1;shape=mxgraph.cisco19.rect;prIcon=workgroup_switch;fillColor=#FAFAFA;strokeColor=#6696AB;rounded=0;" parent="1" vertex="1">
          <mxGeometry x="892.37" y="620" width="130" height="130" as="geometry" />
        </mxCell>
        <mxCell id="5Z4uFH55Tt--5G7TJ9ps-38" value="" style="sketch=0;points=[[0,0.25,0,0,0],[0,0.5,0,0,0],[0,0.75,0,0,0],[0.015,0.015,0,0,0],[0.015,0.985,0,0,0],[0.25,0,0,0,0],[0.25,1,0,0,0],[0.5,0,0,0,0],[0.5,0.5,0,0,0],[0.5,1,0,0,0],[0.75,0,0,0,0],[0.75,1,0,0,0],[0.985,0.015,0,0,0],[0.985,0.985,0,0,0],[1,0.25,0,0,0],[1,0.5,0,0,0],[1,0.75,0,0,0]];verticalLabelPosition=bottom;html=1;verticalAlign=top;aspect=fixed;align=center;pointerEvents=1;shape=mxgraph.cisco19.rect;prIcon=workgroup_switch;fillColor=#FAFAFA;strokeColor=#6696AB;rounded=0;" parent="1" vertex="1">
          <mxGeometry x="1145" y="550" width="130" height="130" as="geometry" />
        </mxCell>
        <mxCell id="5Z4uFH55Tt--5G7TJ9ps-37" value="" style="sketch=0;points=[[0,0.25,0,0,0],[0,0.5,0,0,0],[0,0.75,0,0,0],[0.015,0.015,0,0,0],[0.015,0.985,0,0,0],[0.25,0,0,0,0],[0.25,1,0,0,0],[0.5,0,0,0,0],[0.5,0.5,0,0,0],[0.5,1,0,0,0],[0.75,0,0,0,0],[0.75,1,0,0,0],[0.985,0.015,0,0,0],[0.985,0.985,0,0,0],[1,0.25,0,0,0],[1,0.5,0,0,0],[1,0.75,0,0,0]];verticalLabelPosition=bottom;html=1;verticalAlign=top;aspect=fixed;align=center;pointerEvents=1;shape=mxgraph.cisco19.rect;prIcon=workgroup_switch;fillColor=#FAFAFA;strokeColor=#6696AB;rounded=0;" parent="1" vertex="1">
          <mxGeometry x="1200" y="320" width="130" height="130" as="geometry" />
        </mxCell>
        <mxCell id="5Z4uFH55Tt--5G7TJ9ps-50" style="edgeStyle=none;shape=link;rounded=0;orthogonalLoop=1;jettySize=auto;html=1;exitX=0.5;exitY=0.5;exitDx=0;exitDy=0;exitPerimeter=0;entryX=0.5;entryY=0.5;entryDx=0;entryDy=0;entryPerimeter=0;strokeWidth=2;" parent="1" source="T7RogalMEqnBFZZgvRJF-6" target="b2uNQ1o5INlZ-AaKB8p7-12" edge="1">
          <mxGeometry relative="1" as="geometry" />
        </mxCell>
        <mxCell id="5Z4uFH55Tt--5G7TJ9ps-51" style="edgeStyle=none;shape=link;rounded=0;orthogonalLoop=1;jettySize=auto;html=1;exitX=0.5;exitY=0.5;exitDx=0;exitDy=0;exitPerimeter=0;entryX=0.5;entryY=0.5;entryDx=0;entryDy=0;entryPerimeter=0;strokeWidth=2;" parent="1" source="5Z4uFH55Tt--5G7TJ9ps-9" target="b2uNQ1o5INlZ-AaKB8p7-12" edge="1">
          <mxGeometry relative="1" as="geometry" />
        </mxCell>
        <mxCell id="5Z4uFH55Tt--5G7TJ9ps-52" style="edgeStyle=none;shape=link;rounded=0;orthogonalLoop=1;jettySize=auto;html=1;exitX=0.5;exitY=0.5;exitDx=0;exitDy=0;exitPerimeter=0;entryX=0.5;entryY=0.5;entryDx=0;entryDy=0;entryPerimeter=0;strokeWidth=2;" parent="1" source="5Z4uFH55Tt--5G7TJ9ps-15" target="b2uNQ1o5INlZ-AaKB8p7-12" edge="1">
          <mxGeometry relative="1" as="geometry" />
        </mxCell>
        <mxCell id="5Z4uFH55Tt--5G7TJ9ps-53" style="edgeStyle=none;shape=link;rounded=0;orthogonalLoop=1;jettySize=auto;html=1;exitX=0.5;exitY=0.5;exitDx=0;exitDy=0;exitPerimeter=0;entryX=0.5;entryY=0.5;entryDx=0;entryDy=0;entryPerimeter=0;strokeWidth=2;" parent="1" source="5Z4uFH55Tt--5G7TJ9ps-49" target="T7RogalMEqnBFZZgvRJF-6" edge="1">
          <mxGeometry relative="1" as="geometry" />
        </mxCell>
        <mxCell id="5Z4uFH55Tt--5G7TJ9ps-54" style="edgeStyle=none;shape=link;rounded=0;orthogonalLoop=1;jettySize=auto;html=1;exitX=0.5;exitY=0.5;exitDx=0;exitDy=0;exitPerimeter=0;entryX=0.5;entryY=0.5;entryDx=0;entryDy=0;entryPerimeter=0;strokeWidth=2;" parent="1" source="5Z4uFH55Tt--5G7TJ9ps-49" target="5Z4uFH55Tt--5G7TJ9ps-9" edge="1">
          <mxGeometry relative="1" as="geometry" />
        </mxCell>
        <mxCell id="5Z4uFH55Tt--5G7TJ9ps-56" style="edgeStyle=none;shape=link;rounded=0;orthogonalLoop=1;jettySize=auto;html=1;exitX=0.5;exitY=0.5;exitDx=0;exitDy=0;exitPerimeter=0;entryX=0.5;entryY=0.5;entryDx=0;entryDy=0;entryPerimeter=0;strokeWidth=2;" parent="1" source="5Z4uFH55Tt--5G7TJ9ps-49" target="5Z4uFH55Tt--5G7TJ9ps-15" edge="1">
          <mxGeometry relative="1" as="geometry" />
        </mxCell>
        <mxCell id="T7RogalMEqnBFZZgvRJF-1" style="vsdxID=5;fillColor=none;gradientColor=none;strokeColor=none;points=[[0,0.5,0,0,0],[0.5,0,0,0,0],[0.5,0.5,0,0,0],[0.5,1,0,0,0],[1,0.5,0,0,0]];labelBackgroundColor=none;rounded=0;html=1;whiteSpace=wrap;fontStyle=0" parent="1" vertex="1">
          <mxGeometry x="-144" y="60" width="154" height="150" as="geometry" />
        </mxCell>
        <mxCell id="T7RogalMEqnBFZZgvRJF-2" style="vsdxID=6;fillColor=#12537c;gradientColor=none;shape=stencil(nZBLDoAgDERP0z3SIyjew0SURgSD+Lu9kMZoXLhwN9O+tukAlrNpJg1SzDH4QW/URgNYgZTkjA4UkwJUgGXng+6DX1zLfmoymdXo17xh5zmRJ6Q42BWCfc2oJfdAr+Yv+AP9Cb7OJ3H/2JG1HNGz/84klThPVCc=);strokeColor=none;spacingTop=-3;spacingBottom=-3;spacingLeft=-3;spacingRight=-3;points=[];labelBackgroundColor=none;rounded=0;html=1;whiteSpace=wrap;fontStyle=0" parent="T7RogalMEqnBFZZgvRJF-1" vertex="1">
          <mxGeometry width="154" height="150" as="geometry" />
        </mxCell>
        <mxCell id="T7RogalMEqnBFZZgvRJF-3" style="vsdxID=7;fillColor=none;gradientColor=none;shape=stencil(nZBLDoAgDERP0z3SIyjew0SURgSD+Lu9kMZoXLhwN9O+tukAlrNpJg1SzDH4QW/URgNYgZTkjA4UkwJUgGXng+6DX1zLfmoymdXo17xh5zmRJ6Q42BWCfc2oJfdAr+Yv+AP9Cb7OJ3H/2JG1HNGz/84klThPVCc=);strokeColor=#bcbec0;strokeWidth=2;spacingTop=-3;spacingBottom=-3;spacingLeft=-3;spacingRight=-3;points=[];labelBackgroundColor=none;rounded=0;html=1;whiteSpace=wrap;fontStyle=0" parent="T7RogalMEqnBFZZgvRJF-1" vertex="1">
          <mxGeometry y="1" width="154" height="150" as="geometry" />
        </mxCell>
        <mxCell id="T7RogalMEqnBFZZgvRJF-4" style="vsdxID=8;fillColor=#12537c;gradientColor=none;shape=stencil(lZLbbsIwDIafJreVDzleIgbvgUZZqzGKQoHy9mubis4R1USu7MS/88X5Fa8v1e5cKoJLG5vv8l7v20rxhyKqT1UZ67aPFG8Urw9NLL9icz3tU37eDZVD9NPchg5d0hkYJASPlCKkfJtqP68xFWM6dq4wGtk7ZrDeA05ifKoL+LOm445kc3jQ3I6tJ+s0kzdTNefVLFBHNFi9oJsV0wZRoS2jYzLWoQlB8ozXBwQHbIO3kg0kjclg/mMZrwYfKFgG1JILJEc2lUwKoCXKu2PJhvLy1R0tTMxJtqUfXpiSsNMI18ezFQ/18Zic/HRcH+TW7beS7XnzCw==);strokeColor=none;spacingTop=-3;spacingBottom=-3;spacingLeft=-3;spacingRight=-3;points=[];labelBackgroundColor=none;rounded=0;html=1;whiteSpace=wrap;fontStyle=0" parent="T7RogalMEqnBFZZgvRJF-1" vertex="1">
          <mxGeometry x="15.661016949152541" y="19" width="120.06779661016951" height="116.94915254237287" as="geometry" />
        </mxCell>
        <mxCell id="T7RogalMEqnBFZZgvRJF-5" style="vsdxID=9;fillColor=none;gradientColor=none;shape=stencil(lZLbbsIwDIafJreVDzleIgbvgUZZqzGKQoHy9mubis4R1USu7MS/88X5Fa8v1e5cKoJLG5vv8l7v20rxhyKqT1UZ67aPFG8Urw9NLL9icz3tU37eDZVD9NPchg5d0hkYJASPlCKkfJtqP68xFWM6dq4wGtk7ZrDeA05ifKoL+LOm445kc3jQ3I6tJ+s0kzdTNefVLFBHNFi9oJsV0wZRoS2jYzLWoQlB8ozXBwQHbIO3kg0kjclg/mMZrwYfKFgG1JILJEc2lUwKoCXKu2PJhvLy1R0tTMxJtqUfXpiSsNMI18ezFQ/18Zic/HRcH+TW7beS7XnzCw==);strokeColor=#FFFFFF;strokeWidth=2;spacingTop=-3;spacingBottom=-3;spacingLeft=-3;spacingRight=-3;points=[];labelBackgroundColor=none;rounded=0;html=1;whiteSpace=wrap;fontStyle=0" parent="T7RogalMEqnBFZZgvRJF-1" vertex="1">
          <mxGeometry x="15.661016949152541" y="16.53" width="120.06779661016951" height="116.94915254237287" as="geometry" />
        </mxCell>
        <mxCell id="T7RogalMEqnBFZZgvRJF-6" style="vsdxID=10;fillColor=#FFFFFF;gradientColor=none;shape=stencil(rZjbcuMgDEC/xq8aQIjLc7f7H51p0ng2m3TS7G7794W6ngRjC2u8bw7oSIBukA4f3g5Pr7vOqLfr5fxr969/vh46/NEZ058Ou0t/TV8dPnb4sD9fdi+X85/T8/D79SlL5q/f579Zw/vAWYRAmTLq43uEIMavkZ8DcOxP94AC6ySABu83yaMD55flkSDobYB2EAwDqHF6LUDgQgEEsIx4BDvRD5FRn1xAWMgrRpgA4/q1kAJjJXu1ARSKAAItOs0asBoQRUAjpsVJ0AbKNAsIuowIG0HpZQszAL8kChBlgAXUGwELntnDDMA7rgYMREbeITi7ST6XCifxwgqgzDbUEJblowaKEgMxpVsJ5ILMOCF6sDR1AjHpJraglar0cwuqtmwdIFOvayeQBsPs4H8k2xQo0xk9qBJIpxYYCzOAH4v4PBAAnQgQWxDvoeqbYsARKCa4cyPYCHgFmstPsFP9zBGVce1SGjCdc6qaaIzzlUtPrdcz+meAVO1IBBBrob7atYCq0cqBFIWi3p+9IJHPMSpNgk1JU1aKui3fCvJ8j1KVBcetSGxgBTDZgq3OVLOhnYqnKePoVmDnl6TBBhFQXRTEAB9HtXwjstO0KHVqLzSA5CQnslADjWJa347EQMMLLlTvogaQ7tnl46IRejPZE8aRRT+Uz83xOrMUF7JcWAGkj9vrfN8fj8Pj/n5++ppPQ8M/Afj4CQ==);strokeColor=none;spacingTop=-3;spacingBottom=-3;spacingLeft=-3;spacingRight=-3;points=[[0.5,0.5,0,0,0]];labelBackgroundColor=none;rounded=0;html=1;whiteSpace=wrap;fontStyle=0;strokeWidth=2;" parent="T7RogalMEqnBFZZgvRJF-1" vertex="1">
          <mxGeometry x="27.401864406779666" y="30.439999999999998" width="96.57627118644068" height="94.06779661016947" as="geometry" />
        </mxCell>
        <mxCell id="5Z4uFH55Tt--5G7TJ9ps-4" style="vsdxID=5;fillColor=none;gradientColor=none;strokeColor=none;points=[[0,0.5,0,0,0],[0.5,0,0,0,0],[0.5,0.5,0,0,0],[0.5,1,0,0,0],[1,0.5,0,0,0]];labelBackgroundColor=none;rounded=0;html=1;whiteSpace=wrap;fontStyle=0" parent="1" vertex="1">
          <mxGeometry x="340" y="50" width="154" height="150" as="geometry" />
        </mxCell>
        <mxCell id="5Z4uFH55Tt--5G7TJ9ps-5" style="vsdxID=6;fillColor=#12537c;gradientColor=none;shape=stencil(nZBLDoAgDERP0z3SIyjew0SURgSD+Lu9kMZoXLhwN9O+tukAlrNpJg1SzDH4QW/URgNYgZTkjA4UkwJUgGXng+6DX1zLfmoymdXo17xh5zmRJ6Q42BWCfc2oJfdAr+Yv+AP9Cb7OJ3H/2JG1HNGz/84klThPVCc=);strokeColor=none;spacingTop=-3;spacingBottom=-3;spacingLeft=-3;spacingRight=-3;points=[];labelBackgroundColor=none;rounded=0;html=1;whiteSpace=wrap;fontStyle=0" parent="5Z4uFH55Tt--5G7TJ9ps-4" vertex="1">
          <mxGeometry y="-14" width="154" height="150" as="geometry" />
        </mxCell>
        <mxCell id="5Z4uFH55Tt--5G7TJ9ps-6" style="vsdxID=7;fillColor=none;gradientColor=none;shape=stencil(nZBLDoAgDERP0z3SIyjew0SURgSD+Lu9kMZoXLhwN9O+tukAlrNpJg1SzDH4QW/URgNYgZTkjA4UkwJUgGXng+6DX1zLfmoymdXo17xh5zmRJ6Q42BWCfc2oJfdAr+Yv+AP9Cb7OJ3H/2JG1HNGz/84klThPVCc=);strokeColor=#bcbec0;strokeWidth=2;spacingTop=-3;spacingBottom=-3;spacingLeft=-3;spacingRight=-3;points=[];labelBackgroundColor=none;rounded=0;html=1;whiteSpace=wrap;fontStyle=0" parent="5Z4uFH55Tt--5G7TJ9ps-4" vertex="1">
          <mxGeometry y="-13" width="154" height="150" as="geometry" />
        </mxCell>
        <mxCell id="5Z4uFH55Tt--5G7TJ9ps-7" style="vsdxID=8;fillColor=#12537c;gradientColor=none;shape=stencil(lZLbbsIwDIafJreVDzleIgbvgUZZqzGKQoHy9mubis4R1USu7MS/88X5Fa8v1e5cKoJLG5vv8l7v20rxhyKqT1UZ67aPFG8Urw9NLL9icz3tU37eDZVD9NPchg5d0hkYJASPlCKkfJtqP68xFWM6dq4wGtk7ZrDeA05ifKoL+LOm445kc3jQ3I6tJ+s0kzdTNefVLFBHNFi9oJsV0wZRoS2jYzLWoQlB8ozXBwQHbIO3kg0kjclg/mMZrwYfKFgG1JILJEc2lUwKoCXKu2PJhvLy1R0tTMxJtqUfXpiSsNMI18ezFQ/18Zic/HRcH+TW7beS7XnzCw==);strokeColor=none;spacingTop=-3;spacingBottom=-3;spacingLeft=-3;spacingRight=-3;points=[];labelBackgroundColor=none;rounded=0;html=1;whiteSpace=wrap;fontStyle=0" parent="5Z4uFH55Tt--5G7TJ9ps-4" vertex="1">
          <mxGeometry x="15.661016949152541" y="10" width="120.06779661016951" height="116.94915254237287" as="geometry" />
        </mxCell>
        <mxCell id="5Z4uFH55Tt--5G7TJ9ps-8" style="vsdxID=9;fillColor=none;gradientColor=none;shape=stencil(lZLbbsIwDIafJreVDzleIgbvgUZZqzGKQoHy9mubis4R1USu7MS/88X5Fa8v1e5cKoJLG5vv8l7v20rxhyKqT1UZ67aPFG8Urw9NLL9icz3tU37eDZVD9NPchg5d0hkYJASPlCKkfJtqP68xFWM6dq4wGtk7ZrDeA05ifKoL+LOm445kc3jQ3I6tJ+s0kzdTNefVLFBHNFi9oJsV0wZRoS2jYzLWoQlB8ozXBwQHbIO3kg0kjclg/mMZrwYfKFgG1JILJEc2lUwKoCXKu2PJhvLy1R0tTMxJtqUfXpiSsNMI18ezFQ/18Zic/HRcH+TW7beS7XnzCw==);strokeColor=#FFFFFF;strokeWidth=2;spacingTop=-3;spacingBottom=-3;spacingLeft=-3;spacingRight=-3;points=[];labelBackgroundColor=none;rounded=0;html=1;whiteSpace=wrap;fontStyle=0" parent="5Z4uFH55Tt--5G7TJ9ps-4" vertex="1">
          <mxGeometry x="15.661016949152541" y="3.5299999999999994" width="120.06779661016951" height="116.94915254237287" as="geometry" />
        </mxCell>
        <mxCell id="5Z4uFH55Tt--5G7TJ9ps-9" style="vsdxID=10;fillColor=#FFFFFF;gradientColor=none;shape=stencil(rZjbcuMgDEC/xq8aQIjLc7f7H51p0ng2m3TS7G7794W6ngRjC2u8bw7oSIBukA4f3g5Pr7vOqLfr5fxr969/vh46/NEZ058Ou0t/TV8dPnb4sD9fdi+X85/T8/D79SlL5q/f579Zw/vAWYRAmTLq43uEIMavkZ8DcOxP94AC6ySABu83yaMD55flkSDobYB2EAwDqHF6LUDgQgEEsIx4BDvRD5FRn1xAWMgrRpgA4/q1kAJjJXu1ARSKAAItOs0asBoQRUAjpsVJ0AbKNAsIuowIG0HpZQszAL8kChBlgAXUGwELntnDDMA7rgYMREbeITi7ST6XCifxwgqgzDbUEJblowaKEgMxpVsJ5ILMOCF6sDR1AjHpJraglar0cwuqtmwdIFOvayeQBsPs4H8k2xQo0xk9qBJIpxYYCzOAH4v4PBAAnQgQWxDvoeqbYsARKCa4cyPYCHgFmstPsFP9zBGVce1SGjCdc6qaaIzzlUtPrdcz+meAVO1IBBBrob7atYCq0cqBFIWi3p+9IJHPMSpNgk1JU1aKui3fCvJ8j1KVBcetSGxgBTDZgq3OVLOhnYqnKePoVmDnl6TBBhFQXRTEAB9HtXwjstO0KHVqLzSA5CQnslADjWJa347EQMMLLlTvogaQ7tnl46IRejPZE8aRRT+Uz83xOrMUF7JcWAGkj9vrfN8fj8Pj/n5++ppPQ8M/Afj4CQ==);strokeColor=none;spacingTop=-3;spacingBottom=-3;spacingLeft=-3;spacingRight=-3;points=[[0.5,0.5,0,0,0]];labelBackgroundColor=none;rounded=0;html=1;whiteSpace=wrap;fontStyle=0;strokeWidth=2;" parent="5Z4uFH55Tt--5G7TJ9ps-4" vertex="1">
          <mxGeometry x="28.711864406779664" y="13.970000000000002" width="96.57627118644068" height="94.06779661016947" as="geometry" />
        </mxCell>
        <mxCell id="5Z4uFH55Tt--5G7TJ9ps-10" style="vsdxID=5;fillColor=none;gradientColor=none;strokeColor=none;points=[[0,0.5,0,0,0],[0.5,0,0,0,0],[0.5,0.5,0,0,0],[0.5,1,0,0,0],[1,0.5,0,0,0]];labelBackgroundColor=none;rounded=0;html=1;whiteSpace=wrap;fontStyle=0" parent="1" vertex="1">
          <mxGeometry x="820" y="60" width="154" height="150" as="geometry" />
        </mxCell>
        <mxCell id="5Z4uFH55Tt--5G7TJ9ps-11" style="vsdxID=6;fillColor=#12537c;gradientColor=none;shape=stencil(nZBLDoAgDERP0z3SIyjew0SURgSD+Lu9kMZoXLhwN9O+tukAlrNpJg1SzDH4QW/URgNYgZTkjA4UkwJUgGXng+6DX1zLfmoymdXo17xh5zmRJ6Q42BWCfc2oJfdAr+Yv+AP9Cb7OJ3H/2JG1HNGz/84klThPVCc=);strokeColor=none;spacingTop=-3;spacingBottom=-3;spacingLeft=-3;spacingRight=-3;points=[];labelBackgroundColor=none;rounded=0;html=1;whiteSpace=wrap;fontStyle=0" parent="5Z4uFH55Tt--5G7TJ9ps-10" vertex="1">
          <mxGeometry y="-10" width="154" height="150" as="geometry" />
        </mxCell>
        <mxCell id="5Z4uFH55Tt--5G7TJ9ps-12" style="vsdxID=7;fillColor=none;gradientColor=none;shape=stencil(nZBLDoAgDERP0z3SIyjew0SURgSD+Lu9kMZoXLhwN9O+tukAlrNpJg1SzDH4QW/URgNYgZTkjA4UkwJUgGXng+6DX1zLfmoymdXo17xh5zmRJ6Q42BWCfc2oJfdAr+Yv+AP9Cb7OJ3H/2JG1HNGz/84klThPVCc=);strokeColor=#bcbec0;strokeWidth=2;spacingTop=-3;spacingBottom=-3;spacingLeft=-3;spacingRight=-3;points=[];labelBackgroundColor=none;rounded=0;html=1;whiteSpace=wrap;fontStyle=0" parent="5Z4uFH55Tt--5G7TJ9ps-10" vertex="1">
          <mxGeometry y="-9" width="154" height="150" as="geometry" />
        </mxCell>
        <mxCell id="5Z4uFH55Tt--5G7TJ9ps-13" style="vsdxID=8;fillColor=#12537c;gradientColor=none;shape=stencil(lZLbbsIwDIafJreVDzleIgbvgUZZqzGKQoHy9mubis4R1USu7MS/88X5Fa8v1e5cKoJLG5vv8l7v20rxhyKqT1UZ67aPFG8Urw9NLL9icz3tU37eDZVD9NPchg5d0hkYJASPlCKkfJtqP68xFWM6dq4wGtk7ZrDeA05ifKoL+LOm445kc3jQ3I6tJ+s0kzdTNefVLFBHNFi9oJsV0wZRoS2jYzLWoQlB8ozXBwQHbIO3kg0kjclg/mMZrwYfKFgG1JILJEc2lUwKoCXKu2PJhvLy1R0tTMxJtqUfXpiSsNMI18ezFQ/18Zic/HRcH+TW7beS7XnzCw==);strokeColor=none;spacingTop=-3;spacingBottom=-3;spacingLeft=-3;spacingRight=-3;points=[];labelBackgroundColor=none;rounded=0;html=1;whiteSpace=wrap;fontStyle=0" parent="5Z4uFH55Tt--5G7TJ9ps-10" vertex="1">
          <mxGeometry x="15.661016949152541" y="13" width="120.06779661016951" height="116.94915254237287" as="geometry" />
        </mxCell>
        <mxCell id="5Z4uFH55Tt--5G7TJ9ps-14" style="vsdxID=9;fillColor=none;gradientColor=none;shape=stencil(lZLbbsIwDIafJreVDzleIgbvgUZZqzGKQoHy9mubis4R1USu7MS/88X5Fa8v1e5cKoJLG5vv8l7v20rxhyKqT1UZ67aPFG8Urw9NLL9icz3tU37eDZVD9NPchg5d0hkYJASPlCKkfJtqP68xFWM6dq4wGtk7ZrDeA05ifKoL+LOm445kc3jQ3I6tJ+s0kzdTNefVLFBHNFi9oJsV0wZRoS2jYzLWoQlB8ozXBwQHbIO3kg0kjclg/mMZrwYfKFgG1JILJEc2lUwKoCXKu2PJhvLy1R0tTMxJtqUfXpiSsNMI18ezFQ/18Zic/HRcH+TW7beS7XnzCw==);strokeColor=#FFFFFF;strokeWidth=2;spacingTop=-3;spacingBottom=-3;spacingLeft=-3;spacingRight=-3;points=[];labelBackgroundColor=none;rounded=0;html=1;whiteSpace=wrap;fontStyle=0" parent="5Z4uFH55Tt--5G7TJ9ps-10" vertex="1">
          <mxGeometry x="15.661016949152541" y="7.53" width="120.06779661016951" height="116.94915254237287" as="geometry" />
        </mxCell>
        <mxCell id="5Z4uFH55Tt--5G7TJ9ps-15" style="vsdxID=10;fillColor=#FFFFFF;gradientColor=none;shape=stencil(rZjbcuMgDEC/xq8aQIjLc7f7H51p0ng2m3TS7G7794W6ngRjC2u8bw7oSIBukA4f3g5Pr7vOqLfr5fxr969/vh46/NEZ058Ou0t/TV8dPnb4sD9fdi+X85/T8/D79SlL5q/f579Zw/vAWYRAmTLq43uEIMavkZ8DcOxP94AC6ySABu83yaMD55flkSDobYB2EAwDqHF6LUDgQgEEsIx4BDvRD5FRn1xAWMgrRpgA4/q1kAJjJXu1ARSKAAItOs0asBoQRUAjpsVJ0AbKNAsIuowIG0HpZQszAL8kChBlgAXUGwELntnDDMA7rgYMREbeITi7ST6XCifxwgqgzDbUEJblowaKEgMxpVsJ5ILMOCF6sDR1AjHpJraglar0cwuqtmwdIFOvayeQBsPs4H8k2xQo0xk9qBJIpxYYCzOAH4v4PBAAnQgQWxDvoeqbYsARKCa4cyPYCHgFmstPsFP9zBGVce1SGjCdc6qaaIzzlUtPrdcz+meAVO1IBBBrob7atYCq0cqBFIWi3p+9IJHPMSpNgk1JU1aKui3fCvJ8j1KVBcetSGxgBTDZgq3OVLOhnYqnKePoVmDnl6TBBhFQXRTEAB9HtXwjstO0KHVqLzSA5CQnslADjWJa347EQMMLLlTvogaQ7tnl46IRejPZE8aRRT+Uz83xOrMUF7JcWAGkj9vrfN8fj8Pj/n5++ppPQ8M/Afj4CQ==);strokeColor=none;spacingTop=-3;spacingBottom=-3;spacingLeft=-3;spacingRight=-3;points=[[0.5,0.5,0,0,0]];labelBackgroundColor=none;rounded=0;html=1;whiteSpace=wrap;fontStyle=0;strokeWidth=2;" parent="5Z4uFH55Tt--5G7TJ9ps-10" vertex="1">
          <mxGeometry x="27.401864406779666" y="17.96610169491525" width="96.57627118644068" height="94.06779661016947" as="geometry" />
        </mxCell>
        <mxCell id="5Z4uFH55Tt--5G7TJ9ps-59" value="&lt;font face=&quot;Courier New&quot; style=&quot;font-size: 50px;&quot;&gt;&lt;b&gt;ISP 2&lt;/b&gt;&lt;/font&gt;" style="text;html=1;align=center;verticalAlign=middle;whiteSpace=wrap;rounded=0;" parent="1" vertex="1">
          <mxGeometry x="767" y="-940" width="160" height="70" as="geometry" />
        </mxCell>
        <mxCell id="5Z4uFH55Tt--5G7TJ9ps-60" style="edgeStyle=none;shape=link;rounded=0;orthogonalLoop=1;jettySize=auto;html=1;exitX=0.5;exitY=0.5;exitDx=0;exitDy=0;exitPerimeter=0;entryX=0.5;entryY=0.5;entryDx=0;entryDy=0;entryPerimeter=0;strokeWidth=3;dashed=1;dashPattern=1 1;" parent="1" source="b2uNQ1o5INlZ-AaKB8p7-12" target="5Z4uFH55Tt--5G7TJ9ps-49" edge="1">
          <mxGeometry relative="1" as="geometry" />
        </mxCell>
        <mxCell id="5Z4uFH55Tt--5G7TJ9ps-63" style="edgeStyle=none;shape=link;rounded=0;orthogonalLoop=1;jettySize=auto;html=1;exitX=0.5;exitY=0.5;exitDx=0;exitDy=0;exitPerimeter=0;entryX=0.5;entryY=0.5;entryDx=0;entryDy=0;entryPerimeter=0;strokeWidth=2;" parent="1" source="b2uNQ1o5INlZ-AaKB8p7-6" target="b2uNQ1o5INlZ-AaKB8p7-12" edge="1">
          <mxGeometry relative="1" as="geometry" />
        </mxCell>
        <mxCell id="5Z4uFH55Tt--5G7TJ9ps-64" style="edgeStyle=none;shape=link;rounded=0;orthogonalLoop=1;jettySize=auto;html=1;exitX=0.5;exitY=0.5;exitDx=0;exitDy=0;exitPerimeter=0;entryX=0.5;entryY=0.5;entryDx=0;entryDy=0;entryPerimeter=0;strokeWidth=2;" parent="1" source="5Z4uFH55Tt--5G7TJ9ps-61" target="5Z4uFH55Tt--5G7TJ9ps-49" edge="1">
          <mxGeometry relative="1" as="geometry" />
        </mxCell>
        <mxCell id="5Z4uFH55Tt--5G7TJ9ps-49" value="" style="shape=image;verticalLabelPosition=bottom;verticalAlign=top;imageAspect=0;image=data:image/svg+xml,PHN2ZyB4bWxucz0iaHR0cDovL3d3dy53My5vcmcvMjAwMC9zdmciIHZpZXdCb3g9IjAgMCAxOTIgMTkyIiBpZD0iU2VjdXJpdHlfTmV0d29ya2luZyI+PGRlZnM+PHN0eWxlPi5jbHMtMXtmaWxsOiM0NjQ2NDY7fS5jbHMtMSwuY2xzLTJ7c3Ryb2tlLXdpZHRoOjBweDt9LmNscy0ye2ZpbGw6I2Q5MjkxYzt9PC9zdHlsZT48L2RlZnM+PHBhdGggZD0ibTEyMi4xMywxMTcuN2MtLjczLDIuNDMtMS43OCw0LjUzLTMuMDEsNi4zNC01LjcsOC4zLTE1LjMxLDEwLjQ5LTE1LjMxLDEwLjQ5LDAsMCw1LjkzLTQuNzQsOC44LTEyLjgxLjQ1LTEuMjUuODMtMi41OSwxLjA5LTQuMDEuMjgtMS41LjQ0LTMuMDcuNDQtNC43MywwLTcuOS0zLjY1LTE3LjU0LTE1LjI4LTI4LjI1LDAsMCw1LjIxLDE5LjU0LS4xMSwzMi4wMS0uMTQuMzMtLjI4LjY2LS40NC45Ny0uMjguNTktLjU5LDEuMTYtLjk0LDEuNzItLjkxLDEuNDUtMy4xNSwxLjItMy42OC0uNDItLjA5LS4yOC0uMi0uNzItLjM3LTEuMy0uMDgtLjI4LS4xNi0uNTgtLjIzLS45MS0uNTktMi4yOC0xLjQ1LTUuNzktMi40OC05LjA1LTEuMTctMy43NS0yLjU0LTcuMTgtMy44OS04LjE1LS43LDcuOC02LjE2LDExLjMxLTYuODcsMTguMS0uMDMuMzEtLjA2LjY0LS4wNi45Ny0uMDMsMSwuMDMsMS45My4xNiwyLjg0LDEuMDYsOC4xLDcuMjcsMTIuNTIsNy4yNywxMi41MiwwLDAtOS4wNy0yLjIyLTE0LjQ4LTkuOTQtMS4yNi0xLjgxLTIuMzMtMy45My0zLjAzLTYuMzgtLjU4LTIuMDEtLjkxLTQuMjYtLjkxLTYuNzYsMC0xLjM5LjExLTIuODcuMzMtNC40MiwyLjExLTEyLjIsMTEuOTItMjAuNjIsMTcuMzktMzIuMjF2LS4wMmMyLjMxLTQuODcsMy44Mi0xMC4zLDMuNjgtMTYuODIsMCwwLDguNTQsNi40LDE3LjAzLDE2LjgyLjAyLDAsLjAyLjAyLjAyLjAyLDYuMiw3LjU4LDEyLjMzLDE3LjI5LDE1LjE1LDI4LjI1LDEuMjUsNi4wOS45NSwxMS4wOC0uMjcsMTUuMTRaIiBjbGFzcz0iY2xzLTIiLz48cGF0aCBkPSJtMTAzLjgxLDEzNi41MmMtLjc1LDAtMS40Ni0uNDMtMS44LTEuMTMtLjQtLjg0LS4xOC0xLjg1LjU1LTIuNDMuMDUtLjA0LDUuNTQtNC41Miw4LjE3LTExLjkyLjQ0LTEuMjEuNzgtMi40NSwxLjAxLTMuNzEuMjctMS40My40LTIuOS40LTQuMzYsMC03LjI4LTMuMzUtMTQuNjktOS45OC0yMi4wOCwxLjEzLDcuMDQsMi4wMiwxOC4yMi0xLjU3LDI2LjYzLS4xNi4zNi0uMzEuNzMtLjQ5LDEuMDctLjI3LjU4LS42MSwxLjItMS4wMiwxLjg3LS44NSwxLjM2LTIuMzUsMi4wOC0zLjk1LDEuODgtMS41OC0uMTktMi44Ni0xLjI0LTMuMzQtMi43My0uMDYtLjE3LS4xMi0uNC0uMi0uNjktLjA1LS4xOS0uMTItLjQxLS4xOS0uNjYtLjA5LS4zNC0uMTgtLjY2LS4yNi0xLjAxbC0uMzQtMS4zMWMtLjU3LTIuMjItMS4yOC00Ljk4LTIuMS03LjYtLjQzLTEuMzgtLjgyLTIuNS0xLjE3LTMuNDEtLjc2LDIuMDQtMS43NiwzLjc5LTIuNjksNS40Mi0xLjQ1LDIuNTMtMi42OSw0LjcxLTIuOTksNy41NS0uMDIuMjQtLjA1LjUtLjA1Ljc2LS4wMy44OC4wMiwxLjcuMTQsMi41Ny45Myw3LjEsNi40LDExLjEyLDYuNDYsMTEuMTYuNzguNTYsMS4wNSwxLjU5LjY1LDIuNDYtLjQuODctMS4zNiwxLjMzLTIuMjksMS4xMS0uNC0uMS05Ljg3LTIuNDktMTUuNjUtMTAuNzQtMS40OC0yLjEyLTIuNTktNC40Ni0zLjMxLTYuOTgtLjY1LTIuMjctLjk4LTQuNzMtLjk4LTcuMzEsMC0xLjQ5LjEyLTMuMDcuMzUtNC43LDEuMzctNy45Niw1LjgxLTE0LjM4LDEwLjEtMjAuNiwyLjYzLTMuODEsNS4zNi03Ljc2LDcuNC0xMi4wNi4wMi0uMDUuMDQtLjEuMDYtLjE1LDIuNS01LjI3LDMuNjEtMTAuMzMsMy40OS0xNS45Mi0uMDItLjc3LjQtMS40NywxLjA5LTEuODIuNjgtLjM1LDEuNS0uMjgsMi4xMS4xOC4zNi4yNyw4LjgxLDYuNjUsMTcuMzUsMTcuMTIuMDIuMDIuMDMuMDQuMDQuMDVoMGM3LjgyLDkuNTcsMTMuMDQsMTkuMzMsMTUuNTQsMjkuMDEsMCwuMDMuMDIuMDYuMDIuMSwxLjIyLDUuOTQsMS4xMiwxMS4zNy0uMzEsMTYuMTEsMCwwLDAsMCwwLDAtLjc1LDIuNDctMS44NSw0Ljc5LTMuMjcsNi44OS02LjA3LDguODUtMTYuMSwxMS4yMi0xNi41MiwxMS4zMS0uMTUuMDMtLjMuMDUtLjQ0LjA1Wm0tNC45NS01My44Yy40OSwwLC45OC4xOCwxLjM1LjUzLDEwLjU3LDkuNzMsMTUuOTIsMTkuNzMsMTUuOTIsMjkuNzIsMCwxLjcxLS4xNiwzLjQzLS40Nyw1LjEtLjI3LDEuNDctLjY3LDIuOTItMS4xOCw0LjMyLS44OSwyLjUtMi4wNSw0LjctMy4yNiw2LjU2LDIuMTctMS40NSw0LjQzLTMuNDIsNi4yMy02LjA1LDEuMTktMS43NSwyLjEyLTMuNywyLjc1LTUuNzgsMS4yMy00LjA5LDEuMzEtOC44NC4yMy0xNC4xMS0yLjM1LTkuMDktNy4zLTE4LjMtMTQuNzItMjcuMzktLjAyLS4wMi0uMDQtLjA0LS4wNS0uMDYtNS4xOC02LjM2LTEwLjQyLTExLjIyLTEzLjYxLTEzLjk3LS4zOSw0LjU5LTEuNjEsOS4wMS0zLjY4LDEzLjQzLS4wMi4wNS0uMDQuMS0uMDYuMTQtMi4xOSw0LjY1LTUuMDQsOC43Ny03Ljc5LDEyLjc2LTQuMjMsNi4xMi04LjIyLDExLjkxLTkuNDQsMTguOTQtLjE5LDEuMzgtLjMsMi43Ny0uMyw0LjA4LDAsMi4yLjI4LDQuMjkuODMsNi4yMS42LDIuMDksMS41Miw0LjA0LDIuNzQsNS43OSwxLjY3LDIuMzgsMy43Miw0LjE5LDUuNzIsNS41NS0uOTgtMS44OS0xLjc5LTQuMTMtMi4xMy02LjcyLS4xNS0xLjA4LS4yLTIuMTEtLjE3LTMuMTYsMC0uMzMuMDMtLjczLjA3LTEuMS4zOC0zLjY4LDEuOTYtNi40NSwzLjQ5LTkuMTMsMS41Ny0yLjc0LDMuMDQtNS4zMywzLjM3LTguOTYuMDYtLjcyLjUxLTEuMzQsMS4xNi0xLjY0LjY1LS4zLDEuNDItLjIyLDIsLjIsMS4wNi43NiwyLjU0LDIuNDksNC42Miw5LjE3Ljg2LDIuNzIsMS41OCw1LjU0LDIuMTYsNy44bC4zNSwxLjM0Yy4wOC4zNS4xNS42Mi4yMy44OC4wNy4yNC4xNC40OC4yLjY5LjA2LjIxLjEuMzcuMTUuNS40MS0uNTMuNjktMS4wNC45Mi0xLjUyLjE2LS4zMS4yOC0uNjEuNDEtLjksNC45OC0xMS42OC4wNy0zMC41Mi4wMi0zMC43MS0uMjMtLjg2LjE0LTEuNzcuOS0yLjIzLjMyLS4xOS42OC0uMjksMS4wMy0uMjlabTIzLjI3LDM0Ljk4aDAsMFoiIGNsYXNzPSJjbHMtMSIvPjxwYXRoIGQ9Im01NS4xMSwxMjUuMzh2MzkuMWgtMjkuNzZjLTYuMTUsMC0xMS4xNC00Ljk4LTExLjE0LTExLjE0di0zNC41MWgzNy4wM2MxLjEyLDIuMjgsMi40Miw0LjQ3LDMuODcsNi41NFoiIGNsYXNzPSJjbHMtMiIvPjxwYXRoIGQ9Im01NS4xMSwxNjYuNDhoLTI5Ljc2Yy03LjI1LDAtMTMuMTQtNS44OS0xMy4xNC0xMy4xNHYtMzQuNTFjMC0xLjEuOS0yLDItMmgzNy4wM2MuNzYsMCwxLjQ2LjQzLDEuNzksMS4xMiwxLjA3LDIuMTcsMi4zMiw0LjI4LDMuNzEsNi4yNy4yNC4zNC4zNi43NC4zNiwxLjE1djM5LjFjMCwxLjEtLjksMi0yLDJabS0zOC45LTQ1LjY0djMyLjUxYzAsNS4wNCw0LjEsOS4xNCw5LjE0LDkuMTRoMjcuNzZ2LTM2LjQ4Yy0xLjEzLTEuNjYtMi4xNy0zLjM5LTMuMS01LjE2SDE2LjIxWiIgY2xhc3M9ImNscy0xIi8+PHBhdGggZD0ibTE3Ny43OSwxMTguODR2MzQuNTFjMCw2LjE1LTQuOTgsMTEuMTQtMTEuMTQsMTEuMTRoLTI5LjYxdi0zNS44NWMyLjQ3LTMsNC42LTYuMjgsNi4zMy05Ljc5aDM0LjQyWiIgY2xhc3M9ImNscy0yIi8+PHBhdGggZD0ibTE2Ni42NiwxNjYuNDhoLTI5LjYxYy0xLjEsMC0yLS45LTItMnYtMzUuODVjMC0uNDYuMTYtLjkxLjQ2LTEuMjcsMi4zOS0yLjksNC40My02LjA2LDYuMDgtOS40LjM0LS42OCwxLjAzLTEuMTIsMS43OS0xLjEyaDM0LjQyYzEuMSwwLDIsLjksMiwydjM0LjUxYzAsNy4yNC01Ljg5LDEzLjE0LTEzLjE0LDEzLjE0Wm0tMjcuNjEtNGgyNy42MWM1LjA0LDAsOS4xNC00LjEsOS4xNC05LjE0di0zMi41MWgtMzEuMTljLTEuNTcsMi45OS0zLjQzLDUuODQtNS41NSw4LjV2MzMuMTRaIiBjbGFzcz0iY2xzLTEiLz48cGF0aCBkPSJtMTM3LjA1LDEyOC42MnYzNS44NUg1NS4xMXYtMzkuMDljLjk1LDEuMzYsMS45NywyLjY3LDMuMDQsMy45Myw3LjU3LDguOSwxOC4xMiwxNS4xNywzMC4wOSwxNy4zMSwyLjkzLjUzLDUuOTguOCw5LjA3LjgsMi40NSwwLDQuODctLjE3LDcuMjQtLjUyLDEyLjQxLTEuNzUsMjMuMzktNy45MSwzMS4yOS0xNi44Ny40MS0uNDUuODEtLjkyLDEuMi0xLjRaIiBjbGFzcz0iY2xzLTIiLz48cGF0aCBkPSJtMTM3LjA1LDE2Ni40N0g1NS4xMWMtMS4xLDAtMi0uOS0yLTJ2LTM5LjA5YzAtLjg3LjU3LTEuNjQsMS40LTEuOTEuODMtLjI2LDEuNzQuMDQsMi4yNC43Ni45MSwxLjMsMS45LDIuNTgsMi45MywzLjc4LDcuNDIsOC43MiwxNy42OSwxNC42MywyOC45MiwxNi42NCw1LjAyLjkxLDEwLjU0LDEuMDEsMTUuNjcuMjcsMTEuNjItMS42NCwyMi4zLTcuNCwzMC4wOC0xNi4yMS4zOS0uNDQuNzgtLjg4LDEuMTUtMS4zNC41My0uNjYsMS40Mi0uOTEsMi4yMi0uNjMuOC4yOCwxLjMzLDEuMDQsMS4zMywxLjg5djM1Ljg1YzAsMS4xLS45LDItMiwyWm0tNzkuOTMtNGg3Ny45M3YtMjguNjdjLTguMTUsOC4xNS0xOC43NiwxMy40Ny0zMC4yMSwxNS4wOC01LjU0LjgtMTEuNTEuNjktMTYuOTQtLjI5LTExLjg5LTIuMTItMjIuOC04LjMtMzAuNzgtMTcuNDJ2MzEuMzFaIiBjbGFzcz0iY2xzLTEiLz48cGF0aCBkPSJtNTUuMTEsMjcuNTJ2MzkuMTFjLTEuNDUsMi4wNy0yLjc1LDQuMjYtMy44Nyw2LjU0SDE0LjIxdi0zNC41MmMwLTYuMTUsNC45OS0xMS4xMywxMS4xNC0xMS4xM2gyOS43NloiIGNsYXNzPSJjbHMtMiIvPjxwYXRoIGQ9Im01MS4yNCw3NS4xN0gxNC4yMWMtMS4xLDAtMi0uOS0yLTJ2LTM0LjUyYzAtNy4yNCw1LjktMTMuMTMsMTMuMTQtMTMuMTNoMjkuNzZjMS4xLDAsMiwuOSwyLDJ2MzkuMTFjMCwuNDEtLjEzLjgxLS4zNiwxLjE1LTEuNCwxLjk5LTIuNjQsNC4xLTMuNzEsNi4yNy0uMzQuNjgtMS4wMywxLjEyLTEuNzksMS4xMlptLTM1LjAzLTRoMzMuOGMuOTMtMS43OCwxLjk3LTMuNTEsMy4xLTUuMTZWMjkuNTJoLTI3Ljc2Yy01LjA0LDAtOS4xNCw0LjEtOS4xNCw5LjEzdjMyLjUyWiIgY2xhc3M9ImNscy0xIi8+PHBhdGggZD0ibTE3Ny43MiwzOC42NnYzNC41MmgtMzQuMzVjLTEuNzMtMy41MS0zLjg2LTYuNzktNi4zMy05Ljc5VjI3LjUyaDI5LjU1YzYuMTUsMCwxMS4xNCw0Ljk4LDExLjE0LDExLjEzWiIgY2xhc3M9ImNscy0yIi8+PHBhdGggZD0ibTE3Ny43Miw3NS4xN2gtMzQuMzVjLS43NiwwLTEuNDYtLjQzLTEuNzktMS4xMi0xLjY1LTMuMzQtMy42OS02LjUtNi4wOC05LjQtLjI5LS4zNi0uNDYtLjgxLS40Ni0xLjI3VjI3LjUyYzAtMS4xLjktMiwyLTJoMjkuNTRjNy4yNCwwLDEzLjE0LDUuODksMTMuMTQsMTMuMTN2MzQuNTJjMCwxLjEtLjksMi0yLDJabS0zMy4xMy00aDMxLjEzdi0zMi41MmMwLTUuMDQtNC4xLTkuMTMtOS4xNC05LjEzaC0yNy41NHYzMy4xNWMyLjEyLDIuNjUsMy45OSw1LjUxLDUuNTUsOC41WiIgY2xhc3M9ImNscy0xIi8+PHBhdGggZD0ibTEzNy4wNCwyNy41MnYzNS44NmMtOS40Mi0xMS40Ny0yMy43Mi0xOC43OS0zOS43My0xOC43OS0xNy40NywwLTMyLjkxLDguNzItNDIuMiwyMi4wNFYyNy41Mmg4MS45M1oiIGNsYXNzPSJjbHMtMiIvPjxwYXRoIGQ9Im01NS4xMSw2OC42M2MtLjIsMC0uNC0uMDMtLjYtLjA5LS44My0uMjYtMS40LTEuMDMtMS40LTEuOTFWMjcuNTJjMC0xLjEuOS0yLDItMmg4MS45M2MxLjEsMCwyLC45LDIsMnYzNS44NmMwLC44NC0uNTMsMS42LTEuMzMsMS44OC0uOC4yOC0xLjY4LjA0LTIuMjItLjYxLTkuNDItMTEuNDgtMjMuMzQtMTguMDYtMzguMTktMTguMDYtMTYuMTUsMC0zMS4zMSw3LjkyLTQwLjU2LDIxLjE4LS4zOC41NS0xLC44Ni0xLjY0Ljg2Wm0yLTM5LjExdjMxLjMyYzEwLjA5LTExLjUxLDI0LjcyLTE4LjI0LDQwLjItMTguMjQsMTQuMjgsMCwyNy43Niw1LjYzLDM3LjczLDE1LjYxdi0yOC42OEg1Ny4xMVoiIGNsYXNzPSJjbHMtMSIvPjxwYXRoIGQ9Im01MS4yMyw3My4xOGMtMy40Miw2Ljg4LTUuMzMsMTQuNjItNS4zMywyMi44MnMxLjkyLDE1Ljk0LDUuMzMsMjIuODJIMTQuMjF2LTQ1LjY0aDM3LjAyWiIgY2xhc3M9ImNscy0yIi8+PHBhdGggZD0ibTUxLjIzLDEyMC44M0gxNC4yMWMtMS4xLDAtMi0uOS0yLTJ2LTQ1LjY0YzAtMS4xLjktMiwyLTJoMzcuMDJjLjY5LDAsMS4zMy4zNiwxLjcuOTUuMzYuNTkuNCwxLjMyLjA5LDEuOTQtMy40LDYuODUtNS4xMiwxNC4yMi01LjEyLDIxLjkzczEuNzIsMTUuMDksNS4xMiwyMS45M2MuMzEuNjIuMjcsMS4zNS0uMDksMS45NC0uMzYuNTktMS4wMS45NS0xLjcuOTVabS0zNS4wMi00aDMxLjljLTIuNzktNi41OC00LjIxLTEzLjU2LTQuMjEtMjAuODJzMS40MS0xNC4yNSw0LjIxLTIwLjgyaC0zMS45djQxLjY0WiIgY2xhc3M9ImNscy0xIi8+PHBhdGggZD0ibTE3Ny43Miw3My4xOHY0NS42NGgtMzQuMzRjMy40MS02Ljg4LDUuMzMtMTQuNjIsNS4zMy0yMi44MnMtMS45Mi0xNS45NC01LjMzLTIyLjgyaDM0LjM0WiIgY2xhc3M9ImNscy0yIi8+PHBhdGggZD0ibTE3Ny43MiwxMjAuODNoLTM0LjM0Yy0uNjksMC0xLjMzLS4zNi0xLjctLjk1cy0uNC0xLjMyLS4wOS0xLjk0YzMuNC02Ljg1LDUuMTItMTQuMjMsNS4xMi0yMS45M3MtMS43Mi0xNS4wOS01LjEyLTIxLjkzYy0uMzEtLjYyLS4yNy0xLjM1LjA5LTEuOTQuMzYtLjU5LDEuMDEtLjk1LDEuNy0uOTVoMzQuMzRjMS4xLDAsMiwuOSwyLDJ2NDUuNjRjMCwxLjEtLjksMi0yLDJabS0zMS4yMi00aDI5LjIydi00MS42NGgtMjkuMjJjMi43OSw2LjU4LDQuMjEsMTMuNTYsNC4yMSwyMC44MnMtMS40MSwxNC4yNS00LjIxLDIwLjgyWiIgY2xhc3M9ImNscy0xIi8+PC9zdmc+;rounded=0;points=[[0,0,0,0,0],[0,0.25,0,0,0],[0,0.5,0,0,0],[0,0.75,0,0,0],[0,1,0,0,0],[0.25,0,0,0,0],[0.25,1,0,0,0],[0.5,0,0,0,0],[0.5,0.5,0,0,0],[0.5,1,0,0,0],[0.75,0,0,0,0],[0.75,1,0,0,0],[1,0,0,0,0],[1,0.25,0,0,0],[1,0.5,0,0,0],[1,0.75,0,0,0],[1,1,0,0,0]];" parent="1" vertex="1">
          <mxGeometry x="570" y="-280" width="250" height="230" as="geometry" />
        </mxCell>
        <mxCell id="b2uNQ1o5INlZ-AaKB8p7-12" value="" style="shape=image;verticalLabelPosition=bottom;verticalAlign=top;imageAspect=0;image=data:image/svg+xml,PHN2ZyB4bWxucz0iaHR0cDovL3d3dy53My5vcmcvMjAwMC9zdmciIHZpZXdCb3g9IjAgMCAxOTIgMTkyIiBpZD0iU2VjdXJpdHlfTmV0d29ya2luZyI+PGRlZnM+PHN0eWxlPi5jbHMtMXtmaWxsOiM0NjQ2NDY7fS5jbHMtMSwuY2xzLTJ7c3Ryb2tlLXdpZHRoOjBweDt9LmNscy0ye2ZpbGw6I2Q5MjkxYzt9PC9zdHlsZT48L2RlZnM+PHBhdGggZD0ibTEyMi4xMywxMTcuN2MtLjczLDIuNDMtMS43OCw0LjUzLTMuMDEsNi4zNC01LjcsOC4zLTE1LjMxLDEwLjQ5LTE1LjMxLDEwLjQ5LDAsMCw1LjkzLTQuNzQsOC44LTEyLjgxLjQ1LTEuMjUuODMtMi41OSwxLjA5LTQuMDEuMjgtMS41LjQ0LTMuMDcuNDQtNC43MywwLTcuOS0zLjY1LTE3LjU0LTE1LjI4LTI4LjI1LDAsMCw1LjIxLDE5LjU0LS4xMSwzMi4wMS0uMTQuMzMtLjI4LjY2LS40NC45Ny0uMjguNTktLjU5LDEuMTYtLjk0LDEuNzItLjkxLDEuNDUtMy4xNSwxLjItMy42OC0uNDItLjA5LS4yOC0uMi0uNzItLjM3LTEuMy0uMDgtLjI4LS4xNi0uNTgtLjIzLS45MS0uNTktMi4yOC0xLjQ1LTUuNzktMi40OC05LjA1LTEuMTctMy43NS0yLjU0LTcuMTgtMy44OS04LjE1LS43LDcuOC02LjE2LDExLjMxLTYuODcsMTguMS0uMDMuMzEtLjA2LjY0LS4wNi45Ny0uMDMsMSwuMDMsMS45My4xNiwyLjg0LDEuMDYsOC4xLDcuMjcsMTIuNTIsNy4yNywxMi41MiwwLDAtOS4wNy0yLjIyLTE0LjQ4LTkuOTQtMS4yNi0xLjgxLTIuMzMtMy45My0zLjAzLTYuMzgtLjU4LTIuMDEtLjkxLTQuMjYtLjkxLTYuNzYsMC0xLjM5LjExLTIuODcuMzMtNC40MiwyLjExLTEyLjIsMTEuOTItMjAuNjIsMTcuMzktMzIuMjF2LS4wMmMyLjMxLTQuODcsMy44Mi0xMC4zLDMuNjgtMTYuODIsMCwwLDguNTQsNi40LDE3LjAzLDE2LjgyLjAyLDAsLjAyLjAyLjAyLjAyLDYuMiw3LjU4LDEyLjMzLDE3LjI5LDE1LjE1LDI4LjI1LDEuMjUsNi4wOS45NSwxMS4wOC0uMjcsMTUuMTRaIiBjbGFzcz0iY2xzLTIiLz48cGF0aCBkPSJtMTAzLjgxLDEzNi41MmMtLjc1LDAtMS40Ni0uNDMtMS44LTEuMTMtLjQtLjg0LS4xOC0xLjg1LjU1LTIuNDMuMDUtLjA0LDUuNTQtNC41Miw4LjE3LTExLjkyLjQ0LTEuMjEuNzgtMi40NSwxLjAxLTMuNzEuMjctMS40My40LTIuOS40LTQuMzYsMC03LjI4LTMuMzUtMTQuNjktOS45OC0yMi4wOCwxLjEzLDcuMDQsMi4wMiwxOC4yMi0xLjU3LDI2LjYzLS4xNi4zNi0uMzEuNzMtLjQ5LDEuMDctLjI3LjU4LS42MSwxLjItMS4wMiwxLjg3LS44NSwxLjM2LTIuMzUsMi4wOC0zLjk1LDEuODgtMS41OC0uMTktMi44Ni0xLjI0LTMuMzQtMi43My0uMDYtLjE3LS4xMi0uNC0uMi0uNjktLjA1LS4xOS0uMTItLjQxLS4xOS0uNjYtLjA5LS4zNC0uMTgtLjY2LS4yNi0xLjAxbC0uMzQtMS4zMWMtLjU3LTIuMjItMS4yOC00Ljk4LTIuMS03LjYtLjQzLTEuMzgtLjgyLTIuNS0xLjE3LTMuNDEtLjc2LDIuMDQtMS43NiwzLjc5LTIuNjksNS40Mi0xLjQ1LDIuNTMtMi42OSw0LjcxLTIuOTksNy41NS0uMDIuMjQtLjA1LjUtLjA1Ljc2LS4wMy44OC4wMiwxLjcuMTQsMi41Ny45Myw3LjEsNi40LDExLjEyLDYuNDYsMTEuMTYuNzguNTYsMS4wNSwxLjU5LjY1LDIuNDYtLjQuODctMS4zNiwxLjMzLTIuMjksMS4xMS0uNC0uMS05Ljg3LTIuNDktMTUuNjUtMTAuNzQtMS40OC0yLjEyLTIuNTktNC40Ni0zLjMxLTYuOTgtLjY1LTIuMjctLjk4LTQuNzMtLjk4LTcuMzEsMC0xLjQ5LjEyLTMuMDcuMzUtNC43LDEuMzctNy45Niw1LjgxLTE0LjM4LDEwLjEtMjAuNiwyLjYzLTMuODEsNS4zNi03Ljc2LDcuNC0xMi4wNi4wMi0uMDUuMDQtLjEuMDYtLjE1LDIuNS01LjI3LDMuNjEtMTAuMzMsMy40OS0xNS45Mi0uMDItLjc3LjQtMS40NywxLjA5LTEuODIuNjgtLjM1LDEuNS0uMjgsMi4xMS4xOC4zNi4yNyw4LjgxLDYuNjUsMTcuMzUsMTcuMTIuMDIuMDIuMDMuMDQuMDQuMDVoMGM3LjgyLDkuNTcsMTMuMDQsMTkuMzMsMTUuNTQsMjkuMDEsMCwuMDMuMDIuMDYuMDIuMSwxLjIyLDUuOTQsMS4xMiwxMS4zNy0uMzEsMTYuMTEsMCwwLDAsMCwwLDAtLjc1LDIuNDctMS44NSw0Ljc5LTMuMjcsNi44OS02LjA3LDguODUtMTYuMSwxMS4yMi0xNi41MiwxMS4zMS0uMTUuMDMtLjMuMDUtLjQ0LjA1Wm0tNC45NS01My44Yy40OSwwLC45OC4xOCwxLjM1LjUzLDEwLjU3LDkuNzMsMTUuOTIsMTkuNzMsMTUuOTIsMjkuNzIsMCwxLjcxLS4xNiwzLjQzLS40Nyw1LjEtLjI3LDEuNDctLjY3LDIuOTItMS4xOCw0LjMyLS44OSwyLjUtMi4wNSw0LjctMy4yNiw2LjU2LDIuMTctMS40NSw0LjQzLTMuNDIsNi4yMy02LjA1LDEuMTktMS43NSwyLjEyLTMuNywyLjc1LTUuNzgsMS4yMy00LjA5LDEuMzEtOC44NC4yMy0xNC4xMS0yLjM1LTkuMDktNy4zLTE4LjMtMTQuNzItMjcuMzktLjAyLS4wMi0uMDQtLjA0LS4wNS0uMDYtNS4xOC02LjM2LTEwLjQyLTExLjIyLTEzLjYxLTEzLjk3LS4zOSw0LjU5LTEuNjEsOS4wMS0zLjY4LDEzLjQzLS4wMi4wNS0uMDQuMS0uMDYuMTQtMi4xOSw0LjY1LTUuMDQsOC43Ny03Ljc5LDEyLjc2LTQuMjMsNi4xMi04LjIyLDExLjkxLTkuNDQsMTguOTQtLjE5LDEuMzgtLjMsMi43Ny0uMyw0LjA4LDAsMi4yLjI4LDQuMjkuODMsNi4yMS42LDIuMDksMS41Miw0LjA0LDIuNzQsNS43OSwxLjY3LDIuMzgsMy43Miw0LjE5LDUuNzIsNS41NS0uOTgtMS44OS0xLjc5LTQuMTMtMi4xMy02LjcyLS4xNS0xLjA4LS4yLTIuMTEtLjE3LTMuMTYsMC0uMzMuMDMtLjczLjA3LTEuMS4zOC0zLjY4LDEuOTYtNi40NSwzLjQ5LTkuMTMsMS41Ny0yLjc0LDMuMDQtNS4zMywzLjM3LTguOTYuMDYtLjcyLjUxLTEuMzQsMS4xNi0xLjY0LjY1LS4zLDEuNDItLjIyLDIsLjIsMS4wNi43NiwyLjU0LDIuNDksNC42Miw5LjE3Ljg2LDIuNzIsMS41OCw1LjU0LDIuMTYsNy44bC4zNSwxLjM0Yy4wOC4zNS4xNS42Mi4yMy44OC4wNy4yNC4xNC40OC4yLjY5LjA2LjIxLjEuMzcuMTUuNS40MS0uNTMuNjktMS4wNC45Mi0xLjUyLjE2LS4zMS4yOC0uNjEuNDEtLjksNC45OC0xMS42OC4wNy0zMC41Mi4wMi0zMC43MS0uMjMtLjg2LjE0LTEuNzcuOS0yLjIzLjMyLS4xOS42OC0uMjksMS4wMy0uMjlabTIzLjI3LDM0Ljk4aDAsMFoiIGNsYXNzPSJjbHMtMSIvPjxwYXRoIGQ9Im01NS4xMSwxMjUuMzh2MzkuMWgtMjkuNzZjLTYuMTUsMC0xMS4xNC00Ljk4LTExLjE0LTExLjE0di0zNC41MWgzNy4wM2MxLjEyLDIuMjgsMi40Miw0LjQ3LDMuODcsNi41NFoiIGNsYXNzPSJjbHMtMiIvPjxwYXRoIGQ9Im01NS4xMSwxNjYuNDhoLTI5Ljc2Yy03LjI1LDAtMTMuMTQtNS44OS0xMy4xNC0xMy4xNHYtMzQuNTFjMC0xLjEuOS0yLDItMmgzNy4wM2MuNzYsMCwxLjQ2LjQzLDEuNzksMS4xMiwxLjA3LDIuMTcsMi4zMiw0LjI4LDMuNzEsNi4yNy4yNC4zNC4zNi43NC4zNiwxLjE1djM5LjFjMCwxLjEtLjksMi0yLDJabS0zOC45LTQ1LjY0djMyLjUxYzAsNS4wNCw0LjEsOS4xNCw5LjE0LDkuMTRoMjcuNzZ2LTM2LjQ4Yy0xLjEzLTEuNjYtMi4xNy0zLjM5LTMuMS01LjE2SDE2LjIxWiIgY2xhc3M9ImNscy0xIi8+PHBhdGggZD0ibTE3Ny43OSwxMTguODR2MzQuNTFjMCw2LjE1LTQuOTgsMTEuMTQtMTEuMTQsMTEuMTRoLTI5LjYxdi0zNS44NWMyLjQ3LTMsNC42LTYuMjgsNi4zMy05Ljc5aDM0LjQyWiIgY2xhc3M9ImNscy0yIi8+PHBhdGggZD0ibTE2Ni42NiwxNjYuNDhoLTI5LjYxYy0xLjEsMC0yLS45LTItMnYtMzUuODVjMC0uNDYuMTYtLjkxLjQ2LTEuMjcsMi4zOS0yLjksNC40My02LjA2LDYuMDgtOS40LjM0LS42OCwxLjAzLTEuMTIsMS43OS0xLjEyaDM0LjQyYzEuMSwwLDIsLjksMiwydjM0LjUxYzAsNy4yNC01Ljg5LDEzLjE0LTEzLjE0LDEzLjE0Wm0tMjcuNjEtNGgyNy42MWM1LjA0LDAsOS4xNC00LjEsOS4xNC05LjE0di0zMi41MWgtMzEuMTljLTEuNTcsMi45OS0zLjQzLDUuODQtNS41NSw4LjV2MzMuMTRaIiBjbGFzcz0iY2xzLTEiLz48cGF0aCBkPSJtMTM3LjA1LDEyOC42MnYzNS44NUg1NS4xMXYtMzkuMDljLjk1LDEuMzYsMS45NywyLjY3LDMuMDQsMy45Myw3LjU3LDguOSwxOC4xMiwxNS4xNywzMC4wOSwxNy4zMSwyLjkzLjUzLDUuOTguOCw5LjA3LjgsMi40NSwwLDQuODctLjE3LDcuMjQtLjUyLDEyLjQxLTEuNzUsMjMuMzktNy45MSwzMS4yOS0xNi44Ny40MS0uNDUuODEtLjkyLDEuMi0xLjRaIiBjbGFzcz0iY2xzLTIiLz48cGF0aCBkPSJtMTM3LjA1LDE2Ni40N0g1NS4xMWMtMS4xLDAtMi0uOS0yLTJ2LTM5LjA5YzAtLjg3LjU3LTEuNjQsMS40LTEuOTEuODMtLjI2LDEuNzQuMDQsMi4yNC43Ni45MSwxLjMsMS45LDIuNTgsMi45MywzLjc4LDcuNDIsOC43MiwxNy42OSwxNC42MywyOC45MiwxNi42NCw1LjAyLjkxLDEwLjU0LDEuMDEsMTUuNjcuMjcsMTEuNjItMS42NCwyMi4zLTcuNCwzMC4wOC0xNi4yMS4zOS0uNDQuNzgtLjg4LDEuMTUtMS4zNC41My0uNjYsMS40Mi0uOTEsMi4yMi0uNjMuOC4yOCwxLjMzLDEuMDQsMS4zMywxLjg5djM1Ljg1YzAsMS4xLS45LDItMiwyWm0tNzkuOTMtNGg3Ny45M3YtMjguNjdjLTguMTUsOC4xNS0xOC43NiwxMy40Ny0zMC4yMSwxNS4wOC01LjU0LjgtMTEuNTEuNjktMTYuOTQtLjI5LTExLjg5LTIuMTItMjIuOC04LjMtMzAuNzgtMTcuNDJ2MzEuMzFaIiBjbGFzcz0iY2xzLTEiLz48cGF0aCBkPSJtNTUuMTEsMjcuNTJ2MzkuMTFjLTEuNDUsMi4wNy0yLjc1LDQuMjYtMy44Nyw2LjU0SDE0LjIxdi0zNC41MmMwLTYuMTUsNC45OS0xMS4xMywxMS4xNC0xMS4xM2gyOS43NloiIGNsYXNzPSJjbHMtMiIvPjxwYXRoIGQ9Im01MS4yNCw3NS4xN0gxNC4yMWMtMS4xLDAtMi0uOS0yLTJ2LTM0LjUyYzAtNy4yNCw1LjktMTMuMTMsMTMuMTQtMTMuMTNoMjkuNzZjMS4xLDAsMiwuOSwyLDJ2MzkuMTFjMCwuNDEtLjEzLjgxLS4zNiwxLjE1LTEuNCwxLjk5LTIuNjQsNC4xLTMuNzEsNi4yNy0uMzQuNjgtMS4wMywxLjEyLTEuNzksMS4xMlptLTM1LjAzLTRoMzMuOGMuOTMtMS43OCwxLjk3LTMuNTEsMy4xLTUuMTZWMjkuNTJoLTI3Ljc2Yy01LjA0LDAtOS4xNCw0LjEtOS4xNCw5LjEzdjMyLjUyWiIgY2xhc3M9ImNscy0xIi8+PHBhdGggZD0ibTE3Ny43MiwzOC42NnYzNC41MmgtMzQuMzVjLTEuNzMtMy41MS0zLjg2LTYuNzktNi4zMy05Ljc5VjI3LjUyaDI5LjU1YzYuMTUsMCwxMS4xNCw0Ljk4LDExLjE0LDExLjEzWiIgY2xhc3M9ImNscy0yIi8+PHBhdGggZD0ibTE3Ny43Miw3NS4xN2gtMzQuMzVjLS43NiwwLTEuNDYtLjQzLTEuNzktMS4xMi0xLjY1LTMuMzQtMy42OS02LjUtNi4wOC05LjQtLjI5LS4zNi0uNDYtLjgxLS40Ni0xLjI3VjI3LjUyYzAtMS4xLjktMiwyLTJoMjkuNTRjNy4yNCwwLDEzLjE0LDUuODksMTMuMTQsMTMuMTN2MzQuNTJjMCwxLjEtLjksMi0yLDJabS0zMy4xMy00aDMxLjEzdi0zMi41MmMwLTUuMDQtNC4xLTkuMTMtOS4xNC05LjEzaC0yNy41NHYzMy4xNWMyLjEyLDIuNjUsMy45OSw1LjUxLDUuNTUsOC41WiIgY2xhc3M9ImNscy0xIi8+PHBhdGggZD0ibTEzNy4wNCwyNy41MnYzNS44NmMtOS40Mi0xMS40Ny0yMy43Mi0xOC43OS0zOS43My0xOC43OS0xNy40NywwLTMyLjkxLDguNzItNDIuMiwyMi4wNFYyNy41Mmg4MS45M1oiIGNsYXNzPSJjbHMtMiIvPjxwYXRoIGQ9Im01NS4xMSw2OC42M2MtLjIsMC0uNC0uMDMtLjYtLjA5LS44My0uMjYtMS40LTEuMDMtMS40LTEuOTFWMjcuNTJjMC0xLjEuOS0yLDItMmg4MS45M2MxLjEsMCwyLC45LDIsMnYzNS44NmMwLC44NC0uNTMsMS42LTEuMzMsMS44OC0uOC4yOC0xLjY4LjA0LTIuMjItLjYxLTkuNDItMTEuNDgtMjMuMzQtMTguMDYtMzguMTktMTguMDYtMTYuMTUsMC0zMS4zMSw3LjkyLTQwLjU2LDIxLjE4LS4zOC41NS0xLC44Ni0xLjY0Ljg2Wm0yLTM5LjExdjMxLjMyYzEwLjA5LTExLjUxLDI0LjcyLTE4LjI0LDQwLjItMTguMjQsMTQuMjgsMCwyNy43Niw1LjYzLDM3LjczLDE1LjYxdi0yOC42OEg1Ny4xMVoiIGNsYXNzPSJjbHMtMSIvPjxwYXRoIGQ9Im01MS4yMyw3My4xOGMtMy40Miw2Ljg4LTUuMzMsMTQuNjItNS4zMywyMi44MnMxLjkyLDE1Ljk0LDUuMzMsMjIuODJIMTQuMjF2LTQ1LjY0aDM3LjAyWiIgY2xhc3M9ImNscy0yIi8+PHBhdGggZD0ibTUxLjIzLDEyMC44M0gxNC4yMWMtMS4xLDAtMi0uOS0yLTJ2LTQ1LjY0YzAtMS4xLjktMiwyLTJoMzcuMDJjLjY5LDAsMS4zMy4zNiwxLjcuOTUuMzYuNTkuNCwxLjMyLjA5LDEuOTQtMy40LDYuODUtNS4xMiwxNC4yMi01LjEyLDIxLjkzczEuNzIsMTUuMDksNS4xMiwyMS45M2MuMzEuNjIuMjcsMS4zNS0uMDksMS45NC0uMzYuNTktMS4wMS45NS0xLjcuOTVabS0zNS4wMi00aDMxLjljLTIuNzktNi41OC00LjIxLTEzLjU2LTQuMjEtMjAuODJzMS40MS0xNC4yNSw0LjIxLTIwLjgyaC0zMS45djQxLjY0WiIgY2xhc3M9ImNscy0xIi8+PHBhdGggZD0ibTE3Ny43Miw3My4xOHY0NS42NGgtMzQuMzRjMy40MS02Ljg4LDUuMzMtMTQuNjIsNS4zMy0yMi44MnMtMS45Mi0xNS45NC01LjMzLTIyLjgyaDM0LjM0WiIgY2xhc3M9ImNscy0yIi8+PHBhdGggZD0ibTE3Ny43MiwxMjAuODNoLTM0LjM0Yy0uNjksMC0xLjMzLS4zNi0xLjctLjk1cy0uNC0xLjMyLS4wOS0xLjk0YzMuNC02Ljg1LDUuMTItMTQuMjMsNS4xMi0yMS45M3MtMS43Mi0xNS4wOS01LjEyLTIxLjkzYy0uMzEtLjYyLS4yNy0xLjM1LjA5LTEuOTQuMzYtLjU5LDEuMDEtLjk1LDEuNy0uOTVoMzQuMzRjMS4xLDAsMiwuOSwyLDJ2NDUuNjRjMCwxLjEtLjksMi0yLDJabS0zMS4yMi00aDI5LjIydi00MS42NGgtMjkuMjJjMi43OSw2LjU4LDQuMjEsMTMuNTYsNC4yMSwyMC44MnMtMS40MSwxNC4yNS00LjIxLDIwLjgyWiIgY2xhc3M9ImNscy0xIi8+PC9zdmc+;rounded=0;points=[[0,0,0,0,0],[0,0.25,0,0,0],[0,0.5,0,0,0],[0,0.75,0,0,0],[0,1,0,0,0],[0.25,0,0,0,0],[0.25,1,0,0,0],[0.5,0,0,0,0],[0.5,0.5,0,0,0],[0.5,1,0,0,0],[0.75,0,0,0,0],[0.75,1,0,0,0],[1,0,0,0,0],[1,0.25,0,0,0],[1,0.5,0,0,0],[1,0.75,0,0,0],[1,1,0,0,0]];" parent="1" vertex="1">
          <mxGeometry x="30" y="-280" width="250" height="230" as="geometry" />
        </mxCell>
        <mxCell id="5Z4uFH55Tt--5G7TJ9ps-65" style="edgeStyle=none;shape=link;rounded=0;orthogonalLoop=1;jettySize=auto;html=1;exitX=0.5;exitY=0.5;exitDx=0;exitDy=0;exitPerimeter=0;entryX=0.5;entryY=0.5;entryDx=0;entryDy=0;entryPerimeter=0;strokeWidth=3;dashed=1;dashPattern=1 1;" parent="1" source="b2uNQ1o5INlZ-AaKB8p7-6" target="5Z4uFH55Tt--5G7TJ9ps-61" edge="1">
          <mxGeometry relative="1" as="geometry" />
        </mxCell>
        <mxCell id="5Z4uFH55Tt--5G7TJ9ps-78" value="" style="shape=mxgraph.cisco.switches.layer_3_switch;sketch=0;html=1;pointerEvents=1;fillColor=#036897;strokeColor=#ffffff;strokeWidth=2;verticalLabelPosition=bottom;verticalAlign=top;align=center;outlineConnect=0;rounded=0;points=[[0,0.5,0,0,0],[0,1,0,0,0],[0.08,0.05,0,0,0],[0.26,0.54,0,0,0],[0.5,0,0,0,0],[0.5,1,0,0,0],[0.65,0.54,0,0,0],[0.95,0.94,0,0,0],[1,0,0,0,0],[1,0.5,0,0,0]];" parent="1" vertex="1">
          <mxGeometry x="570" y="-710.72" width="106" height="96" as="geometry" />
        </mxCell>
        <mxCell id="5Z4uFH55Tt--5G7TJ9ps-58" value="&lt;font face=&quot;Courier New&quot; style=&quot;font-size: 50px;&quot;&gt;&lt;b&gt;ISP 1&lt;/b&gt;&lt;/font&gt;" style="text;html=1;align=center;verticalAlign=middle;whiteSpace=wrap;rounded=0;" parent="1" vertex="1">
          <mxGeometry x="-77" y="-940" width="160" height="70" as="geometry" />
        </mxCell>
        <mxCell id="5Z4uFH55Tt--5G7TJ9ps-87" style="edgeStyle=none;shape=link;rounded=0;orthogonalLoop=1;jettySize=auto;html=1;exitX=1;exitY=0.5;exitDx=0;exitDy=0;exitPerimeter=0;entryX=0;entryY=0.5;entryDx=0;entryDy=0;entryPerimeter=0;strokeWidth=2;" parent="1" source="b2uNQ1o5INlZ-AaKB8p7-1" target="5Z4uFH55Tt--5G7TJ9ps-78" edge="1">
          <mxGeometry relative="1" as="geometry" />
        </mxCell>
        <mxCell id="b2uNQ1o5INlZ-AaKB8p7-6" value="" style="shape=mxgraph.cisco.routers.router;sketch=0;html=1;pointerEvents=1;dashed=0;fillColor=#036897;strokeColor=#ffffff;strokeWidth=2;verticalLabelPosition=bottom;verticalAlign=top;align=center;outlineConnect=0;rounded=0;points=[[0,0.5,0,0,0],[0.12,0.1,0,0,0],[0.12,0.9,0,0,0],[0.25,0.5,0,0,0],[0.5,0,0,0,0],[0.5,0.5,0,0,0],[0.5,1,0,0,0],[0.75,0.5,0,0,0],[0.88,0.1,0,0,0],[0.88,0.9,0,0,0],[1,0.5,0,0,0]];" parent="1" vertex="1">
          <mxGeometry y="-520" width="170" height="110" as="geometry" />
        </mxCell>
        <mxCell id="5Z4uFH55Tt--5G7TJ9ps-90" value="&lt;font size=&quot;1&quot; face=&quot;Courier New&quot;&gt;&lt;b style=&quot;font-size: 30px;&quot;&gt;SAN-ART-ACC-FL1-SW1&lt;/b&gt;&lt;/font&gt;" style="text;html=1;align=center;verticalAlign=middle;whiteSpace=wrap;rounded=0;fillColor=none;fillStyle=auto;" parent="1" vertex="1">
          <mxGeometry x="-610" y="480" width="300" height="20" as="geometry" />
        </mxCell>
        <mxCell id="5Z4uFH55Tt--5G7TJ9ps-93" value="&lt;font size=&quot;1&quot; face=&quot;Courier New&quot;&gt;&lt;b style=&quot;font-size: 30px;&quot;&gt;SAN-ART-ACC-FL1-SW2&lt;/b&gt;&lt;/font&gt;" style="text;html=1;align=center;verticalAlign=middle;whiteSpace=wrap;rounded=0;fillColor=none;fillStyle=auto;" parent="1" vertex="1">
          <mxGeometry x="-560" y="710" width="300" height="20" as="geometry" />
        </mxCell>
        <mxCell id="5Z4uFH55Tt--5G7TJ9ps-95" value="&lt;font face=&quot;Courier New&quot;&gt;&lt;span style=&quot;font-size: 30px;&quot;&gt;&lt;b&gt;SAN-FTG-COR-FL1-FW1&lt;/b&gt;&lt;/span&gt;&lt;/font&gt;" style="text;html=1;align=center;verticalAlign=middle;whiteSpace=wrap;rounded=0;fillColor=none;fillStyle=auto;" parent="1" vertex="1">
          <mxGeometry x="-390" y="-175" width="425" height="20" as="geometry" />
        </mxCell>
        <mxCell id="5Z4uFH55Tt--5G7TJ9ps-96" value="&lt;font face=&quot;Courier New&quot;&gt;&lt;span style=&quot;font-size: 30px;&quot;&gt;&lt;b&gt;SAN-FTG-COR-FL1-FW2&lt;/b&gt;&lt;/span&gt;&lt;/font&gt;" style="text;html=1;align=center;verticalAlign=middle;whiteSpace=wrap;rounded=0;fillColor=none;fillStyle=auto;" parent="1" vertex="1">
          <mxGeometry x="820" y="-175" width="425" height="20" as="geometry" />
        </mxCell>
        <mxCell id="5Z4uFH55Tt--5G7TJ9ps-97" value="&lt;font size=&quot;1&quot; face=&quot;Courier New&quot;&gt;&lt;b style=&quot;font-size: 30px;&quot;&gt;SAN-ART-ACC-FL1-SW3&lt;/b&gt;&lt;/font&gt;" style="text;html=1;align=center;verticalAlign=middle;whiteSpace=wrap;rounded=0;fillColor=none;fillStyle=auto;" parent="1" vertex="1">
          <mxGeometry x="-300" y="780" width="300" height="20" as="geometry" />
        </mxCell>
        <mxCell id="5Z4uFH55Tt--5G7TJ9ps-98" value="&lt;font size=&quot;1&quot; face=&quot;Courier New&quot;&gt;&lt;b style=&quot;font-size: 30px;&quot;&gt;SAN-ART-ACC-FL1-SW4&lt;/b&gt;&lt;/font&gt;" style="text;html=1;align=center;verticalAlign=middle;whiteSpace=wrap;rounded=0;fillColor=none;fillStyle=auto;" parent="1" vertex="1">
          <mxGeometry x="30" y="780" width="300" height="20" as="geometry" />
        </mxCell>
        <mxCell id="5Z4uFH55Tt--5G7TJ9ps-99" value="&lt;font size=&quot;1&quot; face=&quot;Courier New&quot;&gt;&lt;b style=&quot;font-size: 30px;&quot;&gt;SAN-ART-ACC-FL2-SW5&lt;/b&gt;&lt;/font&gt;" style="text;html=1;align=center;verticalAlign=middle;whiteSpace=wrap;rounded=0;fillColor=none;fillStyle=auto;" parent="1" vertex="1">
          <mxGeometry x="545" y="790" width="300" height="20" as="geometry" />
        </mxCell>
        <mxCell id="5Z4uFH55Tt--5G7TJ9ps-100" value="&lt;font size=&quot;1&quot; face=&quot;Courier New&quot;&gt;&lt;b style=&quot;font-size: 30px;&quot;&gt;SAN-ART-ACC-FL2-SW6&lt;/b&gt;&lt;/font&gt;" style="text;html=1;align=center;verticalAlign=middle;whiteSpace=wrap;rounded=0;fillColor=none;fillStyle=auto;" parent="1" vertex="1">
          <mxGeometry x="845" y="790" width="300" height="20" as="geometry" />
        </mxCell>
        <mxCell id="5Z4uFH55Tt--5G7TJ9ps-101" value="&lt;font size=&quot;1&quot; face=&quot;Courier New&quot;&gt;&lt;b style=&quot;font-size: 30px;&quot;&gt;SAN-ART-ACC-FL2-SW7&lt;/b&gt;&lt;/font&gt;" style="text;html=1;align=center;verticalAlign=middle;whiteSpace=wrap;rounded=0;fillColor=none;fillStyle=auto;" parent="1" vertex="1">
          <mxGeometry x="1090" y="710" width="300" height="20" as="geometry" />
        </mxCell>
        <mxCell id="5Z4uFH55Tt--5G7TJ9ps-102" value="&lt;font size=&quot;1&quot; face=&quot;Courier New&quot;&gt;&lt;b style=&quot;font-size: 30px;&quot;&gt;SAN-ART-ACC-FL2-SW8&lt;/b&gt;&lt;/font&gt;" style="text;html=1;align=center;verticalAlign=middle;whiteSpace=wrap;rounded=0;fillColor=none;fillStyle=auto;" parent="1" vertex="1">
          <mxGeometry x="1130" y="480" width="300" height="20" as="geometry" />
        </mxCell>
        <mxCell id="5Z4uFH55Tt--5G7TJ9ps-103" value="&lt;b style=&quot;font-family: &amp;quot;Courier New&amp;quot;; font-size: 30px;&quot;&gt;SAN-CIS-COR-FL1-RT1&lt;/b&gt;" style="text;html=1;align=center;verticalAlign=middle;whiteSpace=wrap;rounded=0;fillColor=none;fillStyle=auto;" parent="1" vertex="1">
          <mxGeometry x="-450" y="-475" width="425" height="20" as="geometry" />
        </mxCell>
        <mxCell id="5Z4uFH55Tt--5G7TJ9ps-104" value="&lt;font face=&quot;Courier New&quot;&gt;&lt;span style=&quot;font-size: 30px;&quot;&gt;&lt;b&gt;SAN-CIS-COR-FL1-RT2&lt;/b&gt;&lt;/span&gt;&lt;/font&gt;" style="text;html=1;align=center;verticalAlign=middle;whiteSpace=wrap;rounded=0;fillColor=none;fillStyle=auto;" parent="1" vertex="1">
          <mxGeometry x="869.9999999999999" y="-475" width="425" height="20" as="geometry" />
        </mxCell>
        <mxCell id="5Z4uFH55Tt--5G7TJ9ps-105" value="&lt;font face=&quot;Courier New&quot;&gt;&lt;span style=&quot;font-size: 30px;&quot;&gt;&lt;b style=&quot;&quot;&gt;SAN-JNP-AGG-FL1-SW1&lt;/b&gt;&lt;/span&gt;&lt;/font&gt;" style="text;html=1;align=center;verticalAlign=middle;whiteSpace=wrap;rounded=0;fillColor=none;fillStyle=auto;" parent="1" vertex="1">
          <mxGeometry x="-560" y="125" width="425" height="20" as="geometry" />
        </mxCell>
        <mxCell id="5Z4uFH55Tt--5G7TJ9ps-107" value="&lt;font face=&quot;Courier New&quot;&gt;&lt;span style=&quot;font-size: 30px; background-color: rgb(255, 255, 255);&quot;&gt;&lt;b&gt;SAN-JNP-AGG-FL1-SW2&lt;/b&gt;&lt;/span&gt;&lt;/font&gt;" style="text;html=1;align=center;verticalAlign=middle;whiteSpace=wrap;rounded=0;fillColor=none;fillStyle=auto;" parent="1" vertex="1">
          <mxGeometry x="213" y="10" width="425" height="20" as="geometry" />
        </mxCell>
        <mxCell id="5Z4uFH55Tt--5G7TJ9ps-108" value="&lt;font face=&quot;Courier New&quot;&gt;&lt;span style=&quot;font-size: 30px;&quot;&gt;&lt;b style=&quot;&quot;&gt;SAN-JNP-AGG-FL1-SW3&lt;/b&gt;&lt;/span&gt;&lt;/font&gt;" style="text;html=1;align=center;verticalAlign=middle;whiteSpace=wrap;rounded=0;fillColor=none;fillStyle=auto;" parent="1" vertex="1">
          <mxGeometry x="965" y="115" width="425" height="20" as="geometry" />
        </mxCell>
        <mxCell id="5Z4uFH55Tt--5G7TJ9ps-110" value="&lt;font face=&quot;Courier New&quot;&gt;&lt;span style=&quot;font-size: 30px;&quot;&gt;&lt;span&gt;SAN-CIS-COR-FL1-WANSW1&lt;/span&gt;&lt;/span&gt;&lt;/font&gt;" style="text;html=1;align=center;verticalAlign=middle;whiteSpace=wrap;rounded=0;fillColor=none;fillStyle=auto;fontStyle=1" parent="1" vertex="1">
          <mxGeometry x="-350" y="-672.72" width="492.5" height="20" as="geometry" />
        </mxCell>
        <mxCell id="5Z4uFH55Tt--5G7TJ9ps-111" value="&lt;span style=&quot;forced-color-adjust: none; color: rgb(0, 0, 0); font-family: &amp;quot;Courier New&amp;quot;; font-size: 30px; font-style: normal; font-variant-ligatures: normal; font-variant-caps: normal; letter-spacing: normal; orphans: 2; text-align: center; text-indent: 0px; text-transform: none; widows: 2; word-spacing: 0px; -webkit-text-stroke-width: 0px; white-space: normal; background-color: rgb(251, 251, 251); text-decoration-thickness: initial; text-decoration-style: initial; text-decoration-color: initial;&quot;&gt;SAN-CIS-COR-FL1-WANSW2&lt;/span&gt;" style="text;whiteSpace=wrap;html=1;fontStyle=1" parent="1" vertex="1">
          <mxGeometry x="717.37" y="-692.72" width="480" height="60" as="geometry" />
        </mxCell>
        <mxCell id="5Z4uFH55Tt--5G7TJ9ps-114" value="&lt;h1&gt;&lt;font size=&quot;1&quot; color=&quot;#ffffff&quot; face=&quot;Calibri&quot; style=&quot;&quot;&gt;&lt;b style=&quot;font-size: 28px;&quot;&gt;COSTAATT SOUTH CAMPUS NETWORK DESIGN&lt;/b&gt;&lt;/font&gt;&lt;/h1&gt;" style="swimlane;fontStyle=0;childLayout=stackLayout;horizontal=1;startSize=26;fillColor=FFFFFF;horizontalStack=0;resizeParent=1;resizeParentMax=0;resizeLast=0;collapsible=1;marginBottom=0;html=1;strokeWidth=4;separatorColor=none;" parent="1" vertex="1">
          <mxGeometry x="-700" y="894.78" width="730" height="144" as="geometry" />
        </mxCell>
        <mxCell id="5Z4uFH55Tt--5G7TJ9ps-115" value="&lt;font style=&quot;font-size: 25px;&quot;&gt;LOCATION: SUTTON STREET | SAN FERNANDO&lt;/font&gt;" style="text;strokeColor=none;fillColor=default;align=left;verticalAlign=top;spacingLeft=4;spacingRight=4;overflow=hidden;rotatable=0;points=[[0,0.5],[1,0.5]];portConstraint=eastwest;whiteSpace=wrap;html=1;" parent="5Z4uFH55Tt--5G7TJ9ps-114" vertex="1">
          <mxGeometry y="26" width="730" height="40" as="geometry" />
        </mxCell>
        <mxCell id="5Z4uFH55Tt--5G7TJ9ps-116" value="&lt;font style=&quot;font-size: 25px;&quot;&gt;DATE: 02 JAN 2025&lt;/font&gt;" style="text;strokeColor=none;fillColor=default;align=left;verticalAlign=top;spacingLeft=4;spacingRight=4;overflow=hidden;rotatable=0;points=[[0,0.5],[1,0.5]];portConstraint=eastwest;whiteSpace=wrap;html=1;" parent="5Z4uFH55Tt--5G7TJ9ps-114" vertex="1">
          <mxGeometry y="66" width="730" height="38" as="geometry" />
        </mxCell>
        <mxCell id="5Z4uFH55Tt--5G7TJ9ps-117" value="&lt;font style=&quot;font-size: 25px;&quot;&gt;AUTHOR: SHIVAM SINGH&lt;/font&gt;" style="text;strokeColor=none;fillColor=default;align=left;verticalAlign=top;spacingLeft=4;spacingRight=4;overflow=hidden;rotatable=0;points=[[0,0.5],[1,0.5]];portConstraint=eastwest;whiteSpace=wrap;html=1;" parent="5Z4uFH55Tt--5G7TJ9ps-114" vertex="1">
          <mxGeometry y="104" width="730" height="40" as="geometry" />
        </mxCell>
        <mxCell id="yUUsdxhLlp5v5cSnakzu-7" style="edgeStyle=none;shape=link;rounded=0;orthogonalLoop=1;jettySize=auto;html=1;exitX=0.25;exitY=0.5;exitDx=0;exitDy=0;exitPerimeter=0;entryX=0.65;entryY=0.54;entryDx=0;entryDy=0;entryPerimeter=0;strokeWidth=2;" parent="1" source="5Z4uFH55Tt--5G7TJ9ps-61" target="b2uNQ1o5INlZ-AaKB8p7-1" edge="1">
          <mxGeometry relative="1" as="geometry" />
        </mxCell>
        <mxCell id="5Z4uFH55Tt--5G7TJ9ps-61" value="" style="shape=mxgraph.cisco.routers.router;sketch=0;html=1;pointerEvents=1;dashed=0;fillColor=#036897;strokeColor=#ffffff;strokeWidth=2;verticalLabelPosition=bottom;verticalAlign=top;align=center;outlineConnect=0;rounded=0;points=[[0,0.5,0,0,0],[0.12,0.1,0,0,0],[0.12,0.9,0,0,0],[0.25,0.5,0,0,0],[0.5,0,0,0,0],[0.5,0.5,0,0,0],[0.5,1,0,0,0],[0.75,0.5,0,0,0],[0.88,0.1,0,0,0],[0.88,0.9,0,0,0],[1,0.5,0,0,0]];" parent="1" vertex="1">
          <mxGeometry x="680" y="-520" width="170" height="110" as="geometry" />
        </mxCell>
        <mxCell id="b2uNQ1o5INlZ-AaKB8p7-1" value="" style="shape=mxgraph.cisco.switches.layer_3_switch;sketch=0;html=1;pointerEvents=1;dashed=0;fillColor=#036897;strokeColor=#ffffff;strokeWidth=2;verticalLabelPosition=bottom;verticalAlign=top;align=center;outlineConnect=0;rounded=0;points=[[0,0.5,0,0,0],[0,1,0,0,0],[0.08,0.05,0,0,0],[0.26,0.54,0,0,0],[0.5,0,0,0,0],[0.5,1,0,0,0],[0.65,0.54,0,0,0],[0.95,0.94,0,0,0],[1,0,0,0,0],[1,0.5,0,0,0]];" parent="1" vertex="1">
          <mxGeometry x="170" y="-710.72" width="106" height="96" as="geometry" />
        </mxCell>
        <mxCell id="yUUsdxhLlp5v5cSnakzu-12" value="&lt;span style=&quot;font-size: 25px;&quot;&gt;&lt;font face=&quot;Calibri&quot;&gt;&lt;b&gt;HIGH AVAILABILITY&lt;/b&gt;&lt;/font&gt;&lt;/span&gt;" style="text;html=1;align=center;verticalAlign=middle;whiteSpace=wrap;rounded=0;" parent="1" vertex="1">
          <mxGeometry x="330.5" y="-260" width="190" height="60" as="geometry" />
        </mxCell>
        <mxCell id="yUUsdxhLlp5v5cSnakzu-13" style="edgeStyle=none;rounded=0;orthogonalLoop=1;jettySize=auto;html=1;exitX=0;exitY=1;exitDx=0;exitDy=0;entryX=1;entryY=0.5;entryDx=0;entryDy=0;entryPerimeter=0;endArrow=classic;endFill=1;strokeWidth=2;" parent="1" source="yUUsdxhLlp5v5cSnakzu-12" target="b2uNQ1o5INlZ-AaKB8p7-12" edge="1">
          <mxGeometry relative="1" as="geometry" />
        </mxCell>
        <mxCell id="yUUsdxhLlp5v5cSnakzu-14" style="edgeStyle=none;rounded=0;orthogonalLoop=1;jettySize=auto;html=1;exitX=1;exitY=1;exitDx=0;exitDy=0;entryX=0;entryY=0.5;entryDx=0;entryDy=0;entryPerimeter=0;strokeWidth=2;endArrow=classic;endFill=1;" parent="1" source="yUUsdxhLlp5v5cSnakzu-12" target="5Z4uFH55Tt--5G7TJ9ps-49" edge="1">
          <mxGeometry relative="1" as="geometry" />
        </mxCell>
        <mxCell id="yUUsdxhLlp5v5cSnakzu-17" style="edgeStyle=none;rounded=0;orthogonalLoop=1;jettySize=auto;html=1;exitX=1;exitY=0.5;exitDx=0;exitDy=0;strokeWidth=2;" parent="1" source="yUUsdxhLlp5v5cSnakzu-15" edge="1">
          <mxGeometry relative="1" as="geometry">
            <mxPoint x="680" y="-770.2857142857142" as="targetPoint" />
          </mxGeometry>
        </mxCell>
        <mxCell id="yUUsdxhLlp5v5cSnakzu-18" style="edgeStyle=none;rounded=0;orthogonalLoop=1;jettySize=auto;html=1;exitX=0;exitY=0.5;exitDx=0;exitDy=0;strokeWidth=2;" parent="1" source="yUUsdxhLlp5v5cSnakzu-15" edge="1">
          <mxGeometry relative="1" as="geometry">
            <mxPoint x="160" y="-770.2857142857142" as="targetPoint" />
          </mxGeometry>
        </mxCell>
        <mxCell id="yUUsdxhLlp5v5cSnakzu-15" value="&lt;font face=&quot;Calibri&quot;&gt;&lt;span style=&quot;font-size: 25px;&quot;&gt;&lt;b&gt;Metro &amp;amp; DIA Services&lt;/b&gt;&lt;/span&gt;&lt;/font&gt;" style="text;html=1;align=center;verticalAlign=middle;whiteSpace=wrap;rounded=0;" parent="1" vertex="1">
          <mxGeometry x="330" y="-840" width="190" height="60" as="geometry" />
        </mxCell>
        <mxCell id="yUUsdxhLlp5v5cSnakzu-19" value="&lt;font face=&quot;Calibri&quot;&gt;&lt;span style=&quot;font-size: 25px;&quot;&gt;&lt;b&gt;HOT STANDBY ROUTER PROTOCOL&lt;/b&gt;&lt;/span&gt;&lt;/font&gt;" style="text;html=1;align=center;verticalAlign=middle;whiteSpace=wrap;rounded=0;" parent="1" vertex="1">
          <mxGeometry x="330" y="-400" width="190" height="60" as="geometry" />
        </mxCell>
        <mxCell id="yUUsdxhLlp5v5cSnakzu-20" style="edgeStyle=none;rounded=0;orthogonalLoop=1;jettySize=auto;html=1;exitX=0;exitY=0.5;exitDx=0;exitDy=0;entryX=0.88;entryY=0.9;entryDx=0;entryDy=0;entryPerimeter=0;strokeWidth=2;" parent="1" source="yUUsdxhLlp5v5cSnakzu-19" target="b2uNQ1o5INlZ-AaKB8p7-6" edge="1">
          <mxGeometry relative="1" as="geometry" />
        </mxCell>
        <mxCell id="yUUsdxhLlp5v5cSnakzu-21" style="edgeStyle=none;rounded=0;orthogonalLoop=1;jettySize=auto;html=1;exitX=1;exitY=0.5;exitDx=0;exitDy=0;entryX=0.12;entryY=0.9;entryDx=0;entryDy=0;entryPerimeter=0;strokeWidth=2;" parent="1" source="yUUsdxhLlp5v5cSnakzu-19" target="5Z4uFH55Tt--5G7TJ9ps-61" edge="1">
          <mxGeometry relative="1" as="geometry" />
        </mxCell>
        <mxCell id="kVlw9fLKu26sPZFsKcJ5-1" value="" style="shape=image;verticalLabelPosition=bottom;labelBackgroundColor=default;verticalAlign=top;aspect=fixed;imageAspect=0;image=https://dwglogo.com/wp-content/uploads/2017/07/Arista_logo.png;" parent="1" vertex="1">
          <mxGeometry x="1021.82" y="839.17" width="376.35" height="211.8" as="geometry" />
        </mxCell>
      </root>
    </mxGraphModel>
  </diagram>
</mxfile>
